<?xml version="1.0" encoding="utf-8"?>
<!-- Generator: Adobe Illustrator 24.3.0, SVG Export Plug-In . SVG Version: 6.00 Build 0)  -->
<svg version="1.1" id="Layer_1" xmlns="http://www.w3.org/2000/svg" xmlns:xlink="http://www.w3.org/1999/xlink" x="0px" y="0px"
	 width="74.3px" height="74.3px" viewBox="0 0 74.3 74.3" style="enable-background:new 0 0 74.3 74.3;" xml:space="preserve">
<style type="text/css">
	.st0{fill:none;}
	.st1{fill:#4887FF;}
	.st2{fill:#FFFFFF;}
</style>
<g>
	<path class="st1" d="M18.5,22.4c0-1.8,1.5-3.2,3.3-3.2c1.4,0,2.6,0.9,3.1,2.2h25.3c0.4-1.3,1.6-2.2,3.1-2.2c1.8,0,3.3,1.5,3.3,3.2
		c0,1.8-1.5,3.3-3.3,3.3c-1.4,0-2.6-0.9-3.1-2.2h-4.8c4.4,2.6,7.5,7.2,7.9,12.6h0.7c1,0,1.8,0.8,1.8,1.8v3.4c0,1-0.8,1.8-1.8,1.8
		h-3.4c-1,0-1.8-0.8-1.8-1.8v-3.4c0-1,0.8-1.8,1.8-1.8h0.6c-0.5-7-6.4-12.6-13.6-12.6c-7.1,0-13,5.5-13.6,12.5c0,0,0,0.1,0,0.1h0.6
		c1,0,1.8,0.8,1.8,1.8v3.4c0,0.5-0.2,0.9-0.5,1.2C25.4,42.8,25,43,24.5,43c0,0,0,0,0,0h-3.4c-1,0-1.8-0.8-1.8-1.8v-3.4
		c0-1,0.8-1.8,1.8-1.8h0.7c0,0,0-0.1,0-0.1c0.4-5.3,3.5-9.9,7.9-12.5h-4.8c-0.4,1.3-1.6,2.2-3.1,2.2C20,25.7,18.5,24.2,18.5,22.4z"
		/>
	<path class="st1" d="M70.2,51.5V18.1h-2.1v33.4h-3.2V18.1h-2.1v33.4H44.9v-3c0-1.1-0.6-2.1-1.4-2.7l2.8-3.4c0.8-0.9,0.8-2,0.2-3.1
		L38.9,27c-0.3-0.4-0.7-0.7-1.2-0.7c0,0-0.1,0-0.1,0c0,0,0,0,0,0h0c0,0-0.1,0-0.1,0c-0.5,0-1,0.3-1.2,0.8l-7.5,12.3
		c-0.7,1.1-0.6,2.2,0.2,3.1l2.8,3.4c-0.9,0.6-1.4,1.6-1.4,2.7v3h-4.4c0,0,0,0,0,0H11.5V18.1H9.4v33.4H6.2V18.1H4.1v33.4
		c-1.6,0-2.9,1.3-2.9,2.9v3.8c0,3.7,3,6.7,6.7,6.7h58.5c3.7,0,6.7-3,6.7-6.7v-3.8C73.1,52.8,71.8,51.5,70.2,51.5z M26.7,53.6h20.9
		V55c0,0.8-0.6,1.4-1.4,1.4h-18c-0.8,0-1.4-0.6-1.4-1.4V53.6z"/>
	<g>
		<path class="st0" d="M42.8,48.5c0-0.6-0.5-1.1-1.1-1.1h-8.4c-0.6,0-1.1,0.5-1.1,1.1v3h10.6V48.5z"/>
		<path class="st0" d="M68.1,14.2v3.9h-3.2v-2.3c0-0.6-0.5-1.1-1.1-1.1H10.4c-0.6,0-1,0.5-1,1.1v2.3H6.2v-3.9c0-1.5,1.2-2.7,2.7-2.7
			h56.5C66.9,11.5,68.1,12.7,68.1,14.2z"/>
		<path class="st0" d="M30.4,41.2l3.4,4.1h7.4l3.4-4.1c0.2-0.2,0.2-0.3,0-0.7l-6.1-10.9V36c1.5,0.5,2.5,1.8,2.5,3.4
			c0,2-1.6,3.6-3.6,3.6S34,41.3,34,39.4c0-1.6,1.1-2.9,2.5-3.4v-6.4l-6,10.9C30.2,40.9,30.3,41,30.4,41.2z"/>
		<path class="st0" d="M70.2,53.6H49.7V55c0,1.9-1.6,3.5-3.5,3.5h-18c-1.9,0-3.5-1.6-3.5-3.5v-1.4H4.1c-0.4,0-0.8,0.4-0.8,0.8v3.8
			c0,2.5,2.1,4.6,4.6,4.6h58.5c2.5,0,4.6-2.1,4.6-4.6v-3.8C71,54,70.6,53.6,70.2,53.6z M9.6,58.8L9.6,58.8c-0.6,0-1.1-0.5-1.1-1.1
			c0-0.3,0.1-0.5,0.3-0.7c0.2-0.2,0.4-0.3,0.7-0.3h0c0.3,0,0.5,0.1,0.7,0.3c0.2,0.2,0.3,0.4,0.3,0.7C10.7,58.3,10.2,58.8,9.6,58.8z
			 M15.3,58.8L15.3,58.8c-0.6,0-1.1-0.5-1.1-1.1c0-0.3,0.1-0.5,0.3-0.7c0.1-0.1,0.1-0.1,0.2-0.1c0.1,0,0.1-0.1,0.2-0.1
			c0.1-0.1,0.3-0.1,0.4-0.1h0c0.3,0,0.5,0.1,0.7,0.3c0.2,0.2,0.3,0.4,0.3,0.7C16.3,58.3,15.8,58.8,15.3,58.8z"/>
		<path class="st0" d="M11.5,16.8v1.3h51.3v-1.3H11.5z"/>
		<path class="st2" d="M9.6,56.7L9.6,56.7c-0.6,0-1.1,0.5-1.1,1.1c0,0.6,0.5,1.1,1.1,1.1h0c0.6,0,1.1-0.5,1.1-1.1
			C10.7,57.2,10.2,56.7,9.6,56.7z"/>
		<path class="st2" d="M15.3,56.7L15.3,56.7c-0.6,0-1.1,0.5-1.1,1.1c0,0.6,0.5,1.1,1.1,1.1h0c0.6,0,1.1-0.5,1.1-1.1
			C16.3,57.2,15.8,56.7,15.3,56.7z"/>
		<path class="st2" d="M70.2,51.5V14.2c0-2.7-2.2-4.9-4.9-4.9H8.9c-2.7,0-4.8,2.2-4.8,4.9v37.3c-1.6,0-2.9,1.3-2.9,2.9v3.8
			c0,3.7,3,6.7,6.7,6.7h58.5c3.7,0,6.7-3,6.7-6.7v-3.8C73.1,52.8,71.8,51.5,70.2,51.5z M6.2,14.2c0-1.5,1.2-2.7,2.7-2.7h56.5
			c1.5,0,2.7,1.2,2.7,2.7v37.3h-3.2V15.8c0-0.6-0.5-1.1-1.1-1.1H10.4c-0.6,0-1,0.5-1,1.1v35.8H6.2V14.2z M36.4,36
			c-1.4,0.5-2.5,1.8-2.5,3.4c0,2,1.6,3.6,3.6,3.6s3.6-1.6,3.6-3.6c0-1.6-1.1-2.9-2.5-3.4v-6.4l6.1,10.9c0.2,0.4,0.2,0.5,0,0.7
			l-3.4,4.2h-7.4l-3.4-4.2c-0.2-0.2-0.2-0.3,0-0.7l6-10.9V36z M37.5,37.5c1.1,0,1.9,0.9,1.9,1.9c0,1.1-0.9,1.9-1.9,1.9
			s-1.9-0.8-1.9-1.9C35.6,38.3,36.4,37.5,37.5,37.5z M32.2,48.5c0-0.6,0.5-1.1,1.1-1.1h8.4c0.6,0,1.1,0.5,1.1,1.1v3H32.2V48.5z
			 M47.6,53.6V55c0,0.8-0.6,1.4-1.4,1.4h-18c-0.8,0-1.4-0.6-1.4-1.4v-1.4H47.6z M44.9,51.5v-3c0-1.1-0.6-2.1-1.4-2.7l2.8-3.4
			c0.8-0.9,0.8-2,0.2-3.1L38.9,27c-0.3-0.4-0.7-0.7-1.2-0.7c0,0-0.1,0-0.1,0c0,0,0,0,0,0h0c0,0-0.1,0-0.1,0c-0.5,0-1,0.3-1.2,0.8
			l-7.5,12.3c-0.7,1.1-0.6,2.2,0.2,3.1l2.8,3.4c-0.9,0.6-1.4,1.6-1.4,2.7v3h-4.4c0,0,0,0,0,0H11.5V16.8h51.3v34.7H44.9z M71,58.2
			c0,2.5-2.1,4.6-4.6,4.6H7.9c-2.5,0-4.6-2.1-4.6-4.6v-3.8c0-0.4,0.4-0.8,0.8-0.8h20.5V55c0,1.9,1.6,3.5,3.5,3.5h18
			c1.9,0,3.5-1.6,3.5-3.5v-1.4h20.5c0.4,0,0.8,0.4,0.8,0.8V58.2z"/>
		<path class="st2" d="M53.9,36.1h-0.7c-0.4-5.4-3.4-10-7.9-12.6h4.8c0.4,1.3,1.6,2.2,3.1,2.2c1.8,0,3.3-1.5,3.3-3.3
			c0-1.8-1.5-3.2-3.3-3.2c-1.4,0-2.6,0.9-3.1,2.2H24.8c-0.4-1.3-1.6-2.2-3.1-2.2c-1.8,0-3.3,1.5-3.3,3.2c0,1.8,1.5,3.3,3.3,3.3
			c1.4,0,2.6-0.9,3.1-2.2h4.8c-4.4,2.5-7.5,7.1-7.9,12.5c0,0,0,0.1,0,0.1h-0.7c-1,0-1.8,0.8-1.8,1.8v3.4c0,1,0.8,1.8,1.8,1.8h3.4
			c0,0,0,0,0,0c0.5,0,0.9-0.2,1.2-0.5c0.3-0.3,0.5-0.8,0.5-1.2v-3.4c0-1-0.8-1.8-1.8-1.8h-0.6c0,0,0-0.1,0-0.1
			c0.6-7,6.5-12.5,13.6-12.5c7.2,0,13.1,5.6,13.6,12.6h-0.6c-1,0-1.8,0.8-1.8,1.8v3.4c0,1,0.8,1.8,1.8,1.8h3.4c1,0,1.8-0.8,1.8-1.8
			v-3.4C55.7,36.8,54.9,36.1,53.9,36.1z M53.2,20.5c1.1,0,1.9,0.9,1.9,1.9c0,1.1-0.9,1.9-1.9,1.9s-1.9-0.9-1.9-1.9
			C51.3,21.3,52.2,20.5,53.2,20.5z M21.8,24.3c-1.1,0-1.9-0.9-1.9-1.9c0-1.1,0.9-1.9,1.9-1.9c1.1,0,1.9,0.9,1.9,1.9
			C23.7,23.5,22.8,24.3,21.8,24.3z M24.6,37.7v3.7H21v-3.7H24.6z M54,41.3h-3.7v-3.7H54V41.3z"/>
	</g>
</g>
</svg>
