<?xml version="1.0" encoding="utf-8"?>
<!-- Generator: Adobe Illustrator 24.3.0, SVG Export Plug-In . SVG Version: 6.00 Build 0)  -->
<svg version="1.1" id="Layer_1" xmlns="http://www.w3.org/2000/svg" xmlns:xlink="http://www.w3.org/1999/xlink" x="0px" y="0px"
	 width="678.8px" height="470.2px" viewBox="0 0 678.8 470.2" style="enable-background:new 0 0 678.8 470.2;" xml:space="preserve"
	>
<style type="text/css">
	.st0{fill:none;stroke:#F97015;stroke-width:2;stroke-dasharray:6,6;enable-background:new    ;}
	.st1{fill:#F97015;}
	.st2{fill:#FFFFFF;stroke:#F97015;stroke-width:2;enable-background:new    ;}
	.st3{fill:#FFFFFF;}
</style>
<g>
	<g>
		<g>
			<path class="st1" d="M507.5,51.4l-64.6,64.6c-0.4,0.4-1.1,0.4-1.5,0c-0.4-0.4-0.4-1.1,0-1.5L506,49.9c0.4-0.4,1.1-0.4,1.5,0
				S507.9,51,507.5,51.4z"/>
		</g>
	</g>
	<g>
		<g>
			<path class="st1" d="M572.2,237.3h-91.3c-0.6,0-1-0.5-1-1c0-0.6,0.5-1,1-1h91.3c0.6,0,1,0.5,1,1
				C573.3,236.9,572.8,237.3,572.2,237.3z"/>
		</g>
	</g>
	<g>
		<g>
			<path class="st1" d="M221.8,237.3h-91.3c-0.6,0-1-0.5-1-1c0-0.6,0.5-1,1-1h91.3c0.6,0,1,0.5,1,1
				C222.9,236.9,222.4,237.3,221.8,237.3z"/>
		</g>
	</g>
	<g>
		<g>
			<path class="st1" d="M193.3,51.4l64.8,64.8c0.4,0.4,1.1,0.4,1.5,0c0.4-0.4,0.4-1.1,0-1.5l-64.8-64.8c-0.4-0.4-1.1-0.4-1.5,0
				S192.9,51,193.3,51.4z"/>
		</g>
	</g>
	<g>
		<g>
			<path class="st1" d="M507.5,384.7L442,319.3c-0.4-0.4-1.1-0.4-1.5,0s-0.4,1.1,0,1.5l65.5,65.5c0.4,0.4,1.1,0.4,1.5,0
				C507.9,385.8,507.9,385.1,507.5,384.7z"/>
		</g>
	</g>
	<g>
		<g>
			<path class="st1" d="M193.4,384.7l66.1-66.1c0.4-0.4,1.1-0.4,1.5,0c0.4,0.4,0.4,1.1,0,1.5l-66.1,66.1c-0.4,0.4-1.1,0.4-1.5,0
				C192.9,385.8,192.9,385.1,193.4,384.7z"/>
		</g>
	</g>
	<g>
		<g>
			<g>
				<g>
					<circle cx="350.9" cy="215.9" r="137.9"/>
				</g>
			</g>
		</g>
	</g>
	<g>
		<g>
			<g>
				<g>
					<path class="st1" d="M350.9,84.5c-72.4,0-131.4,58.9-131.4,131.4s58.9,131.4,131.4,131.4s131.4-58.9,131.4-131.4
						S423.4,84.5,350.9,84.5z"/>
				</g>
			</g>
		</g>
	</g>
	<g>
		<g>
			<g>
				<g>
					
						<ellipse transform="matrix(0.9727 -0.2322 0.2322 0.9727 4.887 123.4895)" class="st1" cx="527.1" cy="41" rx="40.2" ry="40.2"/>
				</g>
			</g>
			<g>
				<g>
					<path d="M527.1,82c-22.6,0-41-18.4-41-41s18.4-41,41-41c22.6,0,41,18.4,41,41S549.7,82,527.1,82z M527.1,1.7
						c-21.7,0-39.3,17.6-39.3,39.3s17.6,39.3,39.3,39.3c21.7,0,39.3-17.6,39.3-39.3S548.8,1.7,527.1,1.7z"/>
				</g>
			</g>
		</g>
	</g>
	<g>
		<g>
			<g>
				<g>
					<circle class="st1" cx="604" cy="216.6" r="40.2"/>
				</g>
			</g>
			<g>
				<g>
					<path d="M604,257.6c-22.6,0-41-18.4-41-41s18.4-41,41-41s41,18.4,41,41S626.6,257.6,604,257.6z M604,177.3
						c-21.7,0-39.3,17.6-39.3,39.3s17.6,39.3,39.3,39.3c21.7,0,39.3-17.6,39.3-39.3S625.7,177.3,604,177.3z"/>
				</g>
			</g>
		</g>
	</g>
	<g>
		<g>
			<g>
				<g>
					<circle class="st1" cx="528.2" cy="391.2" r="40.2"/>
				</g>
			</g>
			<g>
				<g>
					<path d="M528.2,432.2c-22.6,0-41-18.4-41-41c0-22.6,18.4-41,41-41c22.6,0,41,18.4,41,41C569.2,413.8,550.8,432.2,528.2,432.2z
						 M528.2,351.9c-21.7,0-39.3,17.6-39.3,39.3c0,21.7,17.6,39.3,39.3,39.3c21.7,0,39.3-17.6,39.3-39.3
						C567.5,369.5,549.9,351.9,528.2,351.9z"/>
				</g>
			</g>
		</g>
	</g>
	<g>
		<g>
			<g>
				<g>
					<circle class="st1" cx="97.8" cy="216.6" r="40.2"/>
				</g>
			</g>
			<g>
				<g>
					<path d="M97.8,257.6c-22.6,0-41-18.4-41-41s18.4-41,41-41s41,18.4,41,41S120.4,257.6,97.8,257.6z M97.8,177.3
						c-21.7,0-39.3,17.6-39.3,39.3s17.6,39.3,39.3,39.3s39.3-17.6,39.3-39.3S119.5,177.3,97.8,177.3z"/>
				</g>
			</g>
		</g>
	</g>
	<g>
		<g>
			<g>
				<g>
					<circle class="st1" cx="173.7" cy="391.2" r="40.2"/>
				</g>
			</g>
			<g>
				<g>
					<path d="M173.7,432.2c-22.6,0-41-18.4-41-41c0-22.6,18.4-41,41-41c22.6,0,41,18.4,41,41C214.7,413.8,196.3,432.2,173.7,432.2z
						 M173.7,351.9c-21.7,0-39.3,17.6-39.3,39.3c0,21.7,17.6,39.3,39.3,39.3s39.3-17.6,39.3-39.3C213,369.5,195.4,351.9,173.7,351.9
						z"/>
				</g>
			</g>
		</g>
	</g>
	<g>
		<g>
			<g>
				<g>
					
						<ellipse transform="matrix(0.9727 -0.2322 0.2322 0.9727 -4.7387 41.7022)" class="st1" cx="174.8" cy="41" rx="40.2" ry="40.2"/>
				</g>
			</g>
			<g>
				<g>
					<path d="M174.8,82c-22.6,0-41-18.4-41-41s18.4-41,41-41s41,18.4,41,41S197.4,82,174.8,82z M174.8,1.7
						c-21.7,0-39.3,17.6-39.3,39.3s17.6,39.3,39.3,39.3c21.7,0,39.3-17.6,39.3-39.3S196.5,1.7,174.8,1.7z"/>
				</g>
			</g>
		</g>
	</g>
	<g>
		<path class="st3" d="M327.4,172.7l-8.9,17.2v8.5h-6.3v-8.5l-8.9-17.2h7.1l5,10.8l5-10.8H327.4z"/>
		<path class="st3" d="M335.7,197.5c-1.6-0.9-2.9-2.1-3.8-3.7c-0.9-1.6-1.4-3.4-1.4-5.6c0-2.1,0.5-4,1.4-5.6
			c0.9-1.6,2.2-2.8,3.8-3.7c1.6-0.9,3.4-1.3,5.4-1.3c2,0,3.8,0.4,5.4,1.3c1.6,0.9,2.9,2.1,3.8,3.7c0.9,1.6,1.4,3.5,1.4,5.6
			s-0.5,4-1.4,5.6c-0.9,1.6-2.2,2.8-3.9,3.7c-1.6,0.9-3.4,1.3-5.4,1.3C339.1,198.7,337.3,198.3,335.7,197.5z M344.2,192
			c0.8-0.9,1.3-2.1,1.3-3.8c0-1.6-0.4-2.9-1.2-3.8c-0.8-0.9-1.8-1.3-3-1.3c-1.2,0-2.2,0.4-3,1.3c-0.8,0.9-1.2,2.1-1.2,3.8
			c0,1.6,0.4,2.9,1.2,3.8c0.8,0.9,1.8,1.3,3,1.3C342.3,193.3,343.3,192.9,344.2,192z"/>
		<path class="st3" d="M377.2,178v20.5h-6.3v-2.8c-0.6,0.9-1.5,1.6-2.6,2.2c-1.1,0.5-2.3,0.8-3.6,0.8c-1.6,0-2.9-0.3-4.1-1
			c-1.2-0.7-2.1-1.7-2.8-3c-0.7-1.3-1-2.9-1-4.7v-12h6.2v11.1c0,1.4,0.4,2.4,1.1,3.2c0.7,0.8,1.7,1.1,2.9,1.1c1.2,0,2.2-0.4,2.9-1.1
			c0.7-0.8,1.1-1.8,1.1-3.2V178H377.2z"/>
		<path class="st3" d="M392.6,178.7c1.1-0.6,2.3-1,3.7-1v6.6h-1.7c-1.6,0-2.7,0.3-3.5,1c-0.8,0.7-1.2,1.9-1.2,3.5v9.5h-6.3V178h6.3
			v3.4C390.5,180.3,391.5,179.4,392.6,178.7z"/>
		<path class="st3" d="M304.8,216.7l-6.7,25.7h-7.6l-4.1-16.9l-4.3,16.9h-7.6l-6.5-25.7h6.7l3.7,18.7l4.6-18.7h6.9l4.4,18.7
			l3.7-18.7H304.8z"/>
		<path class="st3" d="M329,233.7h-14.2c0.1,1.3,0.5,2.2,1.2,2.9c0.7,0.7,1.6,1,2.7,1c1.6,0,2.7-0.7,3.3-2h6.7
			c-0.3,1.3-1,2.6-1.9,3.6c-0.9,1.1-2,1.9-3.4,2.5c-1.3,0.6-2.8,0.9-4.5,0.9c-2,0-3.8-0.4-5.4-1.3c-1.6-0.9-2.8-2.1-3.7-3.7
			c-0.9-1.6-1.3-3.4-1.3-5.6s0.4-4,1.3-5.6c0.9-1.6,2.1-2.8,3.6-3.7c1.6-0.9,3.4-1.3,5.4-1.3c2,0,3.7,0.4,5.3,1.2
			c1.5,0.8,2.7,2,3.6,3.6c0.9,1.5,1.3,3.3,1.3,5.4C329.1,232.5,329,233.1,329,233.7z M322.7,230.2c0-1.1-0.4-1.9-1.1-2.6
			c-0.7-0.6-1.6-1-2.8-1c-1,0-1.9,0.3-2.7,0.9c-0.7,0.6-1.2,1.5-1.3,2.6H322.7z"/>
		<path class="st3" d="M343,222.6c1.1-0.6,2.4-0.9,3.8-0.9c1.7,0,3.2,0.4,4.6,1.3s2.5,2.1,3.2,3.7c0.8,1.6,1.2,3.4,1.2,5.5
			c0,2.1-0.4,4-1.2,5.6c-0.8,1.6-1.9,2.8-3.2,3.7c-1.4,0.9-2.9,1.3-4.6,1.3c-1.4,0-2.7-0.3-3.8-0.9s-1.9-1.3-2.5-2.3v2.9h-6.3v-27.1
			h6.3v9.6C341.1,223.9,341.9,223.2,343,222.6z M348.1,228.5c-0.9-0.9-1.9-1.3-3.2-1.3c-1.2,0-2.3,0.5-3.2,1.4
			c-0.9,0.9-1.3,2.1-1.3,3.7s0.4,2.8,1.3,3.7c0.9,0.9,1.9,1.4,3.2,1.4c1.2,0,2.3-0.5,3.2-1.4c0.9-0.9,1.3-2.2,1.3-3.7
			C349.4,230.6,349,229.4,348.1,228.5z"/>
		<path class="st3" d="M364.5,241.8c-1.4-0.6-2.5-1.4-3.3-2.5c-0.8-1.1-1.3-2.3-1.4-3.6h6.2c0.1,0.7,0.4,1.3,1,1.7
			c0.6,0.4,1.3,0.7,2.2,0.7c0.8,0,1.4-0.2,1.8-0.5c0.4-0.3,0.6-0.7,0.6-1.2c0-0.6-0.3-1-0.9-1.3c-0.6-0.3-1.6-0.6-3-0.9
			c-1.5-0.3-2.7-0.7-3.7-1.1s-1.8-1-2.5-1.8c-0.7-0.8-1.1-1.9-1.1-3.3c0-1.2,0.3-2.2,1-3.2c0.6-1,1.6-1.7,2.9-2.3s2.8-0.8,4.5-0.8
			c2.6,0,4.6,0.6,6.1,1.9c1.5,1.3,2.3,3,2.5,5.1h-5.8c-0.1-0.7-0.4-1.3-0.9-1.7c-0.5-0.4-1.2-0.6-2.1-0.6c-0.7,0-1.3,0.1-1.7,0.4
			c-0.4,0.3-0.6,0.7-0.6,1.2c0,0.6,0.3,1,0.9,1.3c0.6,0.3,1.6,0.6,2.9,0.9c1.5,0.4,2.7,0.8,3.7,1.2c1,0.4,1.8,1,2.5,1.8
			c0.7,0.8,1.1,2,1.1,3.4c0,1.2-0.3,2.3-1,3.2c-0.7,0.9-1.6,1.7-2.9,2.2c-1.3,0.5-2.7,0.8-4.4,0.8
			C367.5,242.7,365.9,242.4,364.5,241.8z"/>
		<path class="st3" d="M383.7,218.9c-0.7-0.6-1-1.4-1-2.4c0-1,0.3-1.8,1-2.4c0.7-0.6,1.6-1,2.7-1c1.1,0,2,0.3,2.7,1
			c0.7,0.6,1,1.5,1,2.4c0,1-0.3,1.8-1,2.4c-0.7,0.6-1.6,1-2.7,1C385.3,219.9,384.4,219.5,383.7,218.9z M389.5,222v20.5h-6.3V222
			H389.5z"/>
		<path class="st3" d="M407.3,237.1v5.3h-3.2c-2.3,0-4-0.6-5.3-1.7c-1.3-1.1-1.9-2.9-1.9-5.4v-8.1h-2.5V222h2.5v-5h6.3v5h4.1v5.2
			h-4.1v8.2c0,0.6,0.1,1.1,0.4,1.3s0.8,0.4,1.5,0.4H407.3z"/>
		<path class="st3" d="M431.8,233.7h-14.2c0.1,1.3,0.5,2.2,1.2,2.9c0.7,0.7,1.6,1,2.7,1c1.6,0,2.7-0.7,3.3-2h6.7
			c-0.3,1.3-1,2.6-1.9,3.6c-0.9,1.1-2,1.9-3.4,2.5c-1.3,0.6-2.8,0.9-4.5,0.9c-2,0-3.8-0.4-5.4-1.3c-1.6-0.9-2.8-2.1-3.7-3.7
			c-0.9-1.6-1.3-3.4-1.3-5.6s0.4-4,1.3-5.6c0.9-1.6,2.1-2.8,3.6-3.7s3.4-1.3,5.4-1.3c2,0,3.7,0.4,5.3,1.2c1.5,0.8,2.7,2,3.6,3.6
			c0.9,1.5,1.3,3.3,1.3,5.4C431.9,232.5,431.9,233.1,431.8,233.7z M425.5,230.2c0-1.1-0.4-1.9-1.1-2.6c-0.7-0.6-1.6-1-2.8-1
			c-1,0-1.9,0.3-2.7,0.9c-0.7,0.6-1.2,1.5-1.3,2.6H425.5z"/>
	</g>
	<g>
		<path d="M481,98.1c0.9-1.4,2.5-2.1,4.6-2.1c2.1,0,3.6,0.7,4.6,2.1c0.9,1.4,1.4,3.3,1.4,5.8c0,2.5-0.5,4.4-1.4,5.8
			c-0.9,1.4-2.5,2.1-4.6,2.1c-2.1,0-3.6-0.7-4.6-2.1s-1.4-3.4-1.4-5.8C479.6,101.5,480.1,99.5,481,98.1z M487.5,100.6
			c-0.3-0.8-1-1.2-1.9-1.2c-1,0-1.6,0.4-1.9,1.2c-0.3,0.8-0.5,1.9-0.5,3.3c0,1,0.1,1.8,0.2,2.4c0.1,0.6,0.3,1.1,0.7,1.5
			c0.3,0.4,0.9,0.6,1.6,0.6c0.7,0,1.2-0.2,1.6-0.6c0.3-0.4,0.6-0.9,0.7-1.5c0.1-0.6,0.2-1.4,0.2-2.4
			C488,102.5,487.9,101.4,487.5,100.6z"/>
		<path d="M494.2,99.7v-3.4h5.9v15.6h-3.8V99.7H494.2z"/>
		<path d="M504.2,111.5c-0.4-0.4-0.6-0.8-0.6-1.4c0-0.6,0.2-1,0.6-1.4c0.4-0.4,0.9-0.6,1.6-0.6c0.6,0,1.1,0.2,1.6,0.6
			c0.4,0.4,0.6,0.9,0.6,1.4c0,0.6-0.2,1-0.6,1.4c-0.4,0.4-0.9,0.6-1.6,0.6C505.1,112.1,504.6,111.9,504.2,111.5z"/>
		<path d="M519.3,111.6c-0.9-0.4-1.6-0.9-2.1-1.6c-0.5-0.7-0.8-1.5-0.8-2.5h3.9c0.1,0.6,0.2,1,0.6,1.3c0.3,0.3,0.8,0.4,1.3,0.4
			c0.5,0,1-0.1,1.3-0.4c0.3-0.2,0.5-0.6,0.5-1c0-0.4-0.1-0.7-0.4-0.9c-0.2-0.2-0.6-0.4-0.9-0.6c-0.4-0.2-0.9-0.3-1.6-0.5
			c-1-0.3-1.8-0.6-2.4-0.9c-0.6-0.3-1.1-0.7-1.6-1.3c-0.4-0.6-0.7-1.3-0.7-2.3c0-1.4,0.5-2.5,1.5-3.3c1-0.8,2.3-1.2,4-1.2
			c1.7,0,3,0.4,4,1.2c1,0.8,1.6,1.9,1.6,3.3h-4c0-0.5-0.2-0.9-0.5-1.1c-0.3-0.3-0.7-0.4-1.3-0.4c-0.4,0-0.8,0.1-1.1,0.4
			c-0.3,0.2-0.4,0.6-0.4,1c0,0.5,0.2,0.9,0.7,1.1c0.5,0.3,1.2,0.6,2.1,0.9c1,0.3,1.8,0.6,2.4,0.9c0.6,0.3,1.1,0.7,1.6,1.3
			c0.4,0.6,0.7,1.3,0.7,2.2c0,0.9-0.2,1.6-0.7,2.3c-0.4,0.7-1.1,1.3-1.9,1.7c-0.8,0.4-1.8,0.6-2.9,0.6
			C521.1,112.1,520.1,111.9,519.3,111.6z"/>
		<path d="M537.6,108.8v3.1h-1.9c-1.3,0-2.4-0.3-3.1-1c-0.7-0.6-1.1-1.7-1.1-3.2V103h-1.5v-3h1.5v-2.9h3.7v2.9h2.4v3h-2.4v4.8
			c0,0.4,0.1,0.6,0.3,0.8c0.2,0.2,0.5,0.2,0.9,0.2H537.6z"/>
		<path d="M546,100.4c0.6-0.4,1.4-0.6,2.1-0.6v3.9h-1c-0.9,0-1.6,0.2-2.1,0.6c-0.5,0.4-0.7,1.1-0.7,2.1v5.5h-3.7V100h3.7v2
			C544.8,101.3,545.4,100.8,546,100.4z"/>
		<path d="M550.9,102.7c0.5-0.9,1.1-1.6,1.9-2.1c0.8-0.5,1.7-0.7,2.7-0.7c0.8,0,1.6,0.2,2.2,0.5c0.6,0.3,1.1,0.8,1.5,1.3V100h3.7
			v11.9h-3.7v-1.7c-0.4,0.6-0.9,1-1.5,1.3c-0.6,0.3-1.4,0.5-2.2,0.5c-1,0-1.9-0.3-2.7-0.8c-0.8-0.5-1.4-1.2-1.9-2.2
			c-0.5-0.9-0.7-2-0.7-3.2S550.5,103.6,550.9,102.7z M558.4,103.8c-0.5-0.5-1.1-0.8-1.8-0.8c-0.7,0-1.3,0.3-1.9,0.8
			s-0.8,1.2-0.8,2.1c0,0.9,0.3,1.6,0.8,2.2s1.1,0.8,1.9,0.8c0.7,0,1.3-0.3,1.8-0.8c0.5-0.5,0.8-1.2,0.8-2.2
			C559.2,105.1,558.9,104.3,558.4,103.8z"/>
		<path d="M573.2,108.8v3.1h-1.9c-1.3,0-2.4-0.3-3.1-1c-0.7-0.6-1.1-1.7-1.1-3.2V103h-1.5v-3h1.5v-2.9h3.7v2.9h2.4v3h-2.4v4.8
			c0,0.4,0.1,0.6,0.3,0.8c0.2,0.2,0.5,0.2,0.9,0.2H573.2z"/>
		<path d="M587.5,106.8h-8.3c0.1,0.7,0.3,1.3,0.7,1.7c0.4,0.4,0.9,0.6,1.6,0.6c0.9,0,1.5-0.4,1.9-1.2h3.9c-0.2,0.8-0.6,1.5-1.1,2.1
			c-0.5,0.6-1.2,1.1-2,1.5c-0.8,0.4-1.7,0.5-2.6,0.5c-1.2,0-2.2-0.2-3.1-0.7c-0.9-0.5-1.6-1.2-2.1-2.1c-0.5-0.9-0.8-2-0.8-3.2
			c0-1.2,0.3-2.3,0.8-3.3c0.5-0.9,1.2-1.6,2.1-2.1c0.9-0.5,2-0.7,3.1-0.7c1.2,0,2.2,0.2,3.1,0.7c0.9,0.5,1.6,1.2,2.1,2.1
			c0.5,0.9,0.8,1.9,0.8,3.1C587.6,106.1,587.5,106.5,587.5,106.8z M583.8,104.8c0-0.6-0.2-1.1-0.6-1.5c-0.4-0.4-1-0.6-1.6-0.6
			c-0.6,0-1.1,0.2-1.6,0.5c-0.4,0.4-0.7,0.9-0.8,1.5H583.8z"/>
		<path d="M597.3,100.3c0.6,0.3,1.1,0.8,1.5,1.3V100h3.7v11.9c0,1.1-0.2,2.1-0.7,3c-0.4,0.9-1.1,1.6-2,2.1s-2,0.8-3.3,0.8
			c-1.8,0-3.2-0.4-4.3-1.3c-1.1-0.8-1.7-2-1.9-3.4h3.6c0.1,0.5,0.4,0.8,0.8,1.1c0.4,0.3,1,0.4,1.6,0.4c0.8,0,1.4-0.2,1.8-0.7
			c0.4-0.4,0.7-1.1,0.7-2.1v-1.7c-0.4,0.6-0.8,1-1.5,1.4c-0.6,0.3-1.4,0.5-2.2,0.5c-1,0-1.9-0.3-2.7-0.8c-0.8-0.5-1.4-1.2-1.9-2.2
			c-0.5-0.9-0.7-2-0.7-3.2s0.2-2.3,0.7-3.2c0.5-0.9,1.1-1.6,1.9-2.1c0.8-0.5,1.7-0.7,2.7-0.7C595.9,99.8,596.7,100,597.3,100.3z
			 M598,103.8c-0.5-0.5-1.1-0.8-1.8-0.8c-0.7,0-1.3,0.3-1.9,0.8c-0.5,0.5-0.8,1.2-0.8,2.1c0,0.9,0.3,1.6,0.8,2.2
			c0.5,0.5,1.1,0.8,1.9,0.8c0.7,0,1.3-0.3,1.8-0.8c0.5-0.5,0.8-1.2,0.8-2.2C598.8,105.1,598.5,104.3,598,103.8z"/>
		<path d="M618.3,100l-7.5,17.6h-3.9l2.7-6.1l-4.9-11.5h4.1l2.8,7.5l2.7-7.5H618.3z"/>
	</g>
	<g>
		<path d="M530.7,274.4c0.9-1.4,2.5-2.1,4.6-2.1c2.1,0,3.6,0.7,4.6,2.1c0.9,1.4,1.4,3.3,1.4,5.8c0,2.5-0.5,4.4-1.4,5.8
			c-0.9,1.4-2.5,2.1-4.6,2.1c-2.1,0-3.6-0.7-4.6-2.1s-1.4-3.4-1.4-5.8C529.3,277.7,529.7,275.8,530.7,274.4z M537.2,276.8
			c-0.3-0.8-1-1.2-1.9-1.2c-1,0-1.6,0.4-1.9,1.2c-0.3,0.8-0.5,1.9-0.5,3.3c0,1,0.1,1.8,0.2,2.4c0.1,0.6,0.3,1.1,0.7,1.5
			c0.3,0.4,0.9,0.6,1.6,0.6c0.7,0,1.2-0.2,1.6-0.6s0.6-0.9,0.7-1.5c0.1-0.6,0.2-1.4,0.2-2.4C537.7,278.7,537.5,277.6,537.2,276.8z"
			/>
		<path d="M544.8,284.7c1.4-1.2,2.5-2.1,3.3-2.8c0.8-0.7,1.5-1.5,2-2.3c0.6-0.8,0.8-1.6,0.8-2.4c0-0.6-0.1-1-0.4-1.4
			c-0.3-0.3-0.7-0.5-1.2-0.5c-0.5,0-1,0.2-1.3,0.6c-0.3,0.4-0.5,1-0.5,1.7h-3.5c0-1.2,0.3-2.2,0.8-3c0.5-0.8,1.1-1.4,1.9-1.8
			c0.8-0.4,1.7-0.6,2.7-0.6c1.7,0,3,0.4,3.8,1.3c0.9,0.9,1.3,2,1.3,3.4c0,1.5-0.5,2.9-1.6,4.2c-1,1.3-2.4,2.6-4,3.8h5.8v3h-10.7
			v-2.7C544.6,284.9,544.8,284.7,544.8,284.7z"/>
		<path d="M558.1,287.8c-0.4-0.4-0.6-0.8-0.6-1.4c0-0.6,0.2-1,0.6-1.4c0.4-0.4,0.9-0.6,1.6-0.6c0.6,0,1.1,0.2,1.6,0.6
			c0.4,0.4,0.6,0.9,0.6,1.4c0,0.6-0.2,1-0.6,1.4c-0.4,0.4-0.9,0.6-1.6,0.6C559,288.3,558.5,288.1,558.1,287.8z"/>
		<path d="M578.3,288.2l-3.1-5.7h-0.9v5.7h-3.7v-15h6.1c1.2,0,2.2,0.2,3,0.6c0.8,0.4,1.5,1,1.9,1.7c0.4,0.7,0.6,1.5,0.6,2.4
			c0,1-0.3,1.9-0.8,2.7c-0.6,0.8-1.4,1.3-2.5,1.7l3.5,5.9H578.3z M574.3,279.9h2.3c0.7,0,1.2-0.2,1.5-0.5c0.3-0.3,0.5-0.8,0.5-1.4
			c0-0.6-0.2-1-0.5-1.3c-0.3-0.3-0.8-0.5-1.5-0.5h-2.3V279.9z"/>
		<path d="M596.8,283.1h-8.3c0.1,0.7,0.3,1.3,0.7,1.7c0.4,0.4,0.9,0.6,1.6,0.6c0.9,0,1.5-0.4,1.9-1.2h3.9c-0.2,0.8-0.6,1.5-1.1,2.1
			c-0.5,0.6-1.2,1.1-2,1.5c-0.8,0.4-1.7,0.5-2.6,0.5c-1.2,0-2.2-0.2-3.1-0.7c-0.9-0.5-1.6-1.2-2.1-2.1c-0.5-0.9-0.8-2-0.8-3.2
			c0-1.2,0.3-2.3,0.8-3.3c0.5-0.9,1.2-1.6,2.1-2.1c0.9-0.5,2-0.7,3.1-0.7c1.2,0,2.2,0.2,3.1,0.7c0.9,0.5,1.6,1.2,2.1,2.1
			c0.5,0.9,0.8,1.9,0.8,3.1C596.9,282.3,596.9,282.7,596.8,283.1z M593.1,281c0-0.6-0.2-1.1-0.6-1.5c-0.4-0.4-1-0.6-1.6-0.6
			c-0.6,0-1.1,0.2-1.6,0.5c-0.4,0.4-0.7,0.9-0.8,1.5H593.1z"/>
		<path d="M601.9,287.8c-0.8-0.4-1.5-0.8-1.9-1.5c-0.5-0.6-0.7-1.3-0.8-2.1h3.6c0,0.4,0.2,0.7,0.6,1c0.3,0.3,0.8,0.4,1.3,0.4
			c0.5,0,0.8-0.1,1.1-0.3c0.2-0.2,0.4-0.4,0.4-0.7c0-0.3-0.2-0.6-0.5-0.8c-0.4-0.2-0.9-0.3-1.7-0.5c-0.9-0.2-1.6-0.4-2.1-0.6
			c-0.6-0.2-1.1-0.6-1.5-1c-0.4-0.5-0.6-1.1-0.6-1.9c0-0.7,0.2-1.3,0.6-1.9c0.4-0.6,0.9-1,1.7-1.3c0.7-0.3,1.6-0.5,2.6-0.5
			c1.5,0,2.7,0.4,3.5,1.1c0.9,0.7,1.4,1.7,1.5,3h-3.4c-0.1-0.4-0.2-0.7-0.5-1c-0.3-0.2-0.7-0.4-1.2-0.4c-0.4,0-0.8,0.1-1,0.2
			c-0.2,0.2-0.3,0.4-0.3,0.7c0,0.3,0.2,0.6,0.5,0.8c0.4,0.2,0.9,0.3,1.7,0.5c0.9,0.2,1.6,0.5,2.2,0.7c0.6,0.2,1,0.6,1.5,1.1
			c0.4,0.5,0.6,1.2,0.7,2c0,0.7-0.2,1.3-0.6,1.9c-0.4,0.5-1,1-1.7,1.3c-0.7,0.3-1.6,0.5-2.6,0.5
			C603.7,288.3,602.8,288.2,601.9,287.8z"/>
		<path d="M624.1,283.1h-8.3c0.1,0.7,0.3,1.3,0.7,1.7c0.4,0.4,0.9,0.6,1.6,0.6c0.9,0,1.5-0.4,1.9-1.2h3.9c-0.2,0.8-0.6,1.5-1.1,2.1
			c-0.5,0.6-1.2,1.1-2,1.5c-0.8,0.4-1.7,0.5-2.6,0.5c-1.2,0-2.2-0.2-3.1-0.7c-0.9-0.5-1.6-1.2-2.1-2.1c-0.5-0.9-0.8-2-0.8-3.2
			c0-1.2,0.3-2.3,0.8-3.3c0.5-0.9,1.2-1.6,2.1-2.1c0.9-0.5,2-0.7,3.1-0.7c1.2,0,2.2,0.2,3.1,0.7c0.9,0.5,1.6,1.2,2.1,2.1
			c0.5,0.9,0.8,1.9,0.8,3.1C624.1,282.3,624.1,282.7,624.1,283.1z M620.4,281c0-0.6-0.2-1.1-0.6-1.5c-0.4-0.4-1-0.6-1.6-0.6
			c-0.6,0-1.1,0.2-1.6,0.5c-0.4,0.4-0.7,0.9-0.8,1.5H620.4z"/>
		<path d="M627.1,278.9c0.5-0.9,1.1-1.6,1.9-2.1c0.8-0.5,1.7-0.7,2.7-0.7c0.8,0,1.6,0.2,2.2,0.5c0.6,0.3,1.1,0.8,1.5,1.3v-1.7h3.7
			v11.9h-3.7v-1.7c-0.4,0.6-0.9,1-1.5,1.3c-0.6,0.3-1.4,0.5-2.2,0.5c-1,0-1.9-0.3-2.7-0.8c-0.8-0.5-1.4-1.2-1.9-2.2
			c-0.5-0.9-0.7-2-0.7-3.2C626.4,281,626.6,279.9,627.1,278.9z M634.6,280c-0.5-0.5-1.1-0.8-1.8-0.8c-0.7,0-1.3,0.3-1.9,0.8
			c-0.5,0.5-0.8,1.2-0.8,2.1c0,0.9,0.3,1.6,0.8,2.2c0.5,0.5,1.1,0.8,1.9,0.8c0.7,0,1.3-0.3,1.8-0.8c0.5-0.5,0.8-1.2,0.8-2.2
			C635.3,281.3,635.1,280.6,634.6,280z"/>
		<path d="M648,276.7c0.6-0.4,1.4-0.6,2.1-0.6v3.9h-1c-0.9,0-1.6,0.2-2.1,0.6c-0.5,0.4-0.7,1.1-0.7,2.1v5.5h-3.7v-11.9h3.7v2
			C646.8,277.6,647.3,277,648,276.7z"/>
		<path d="M653,278.9c0.5-0.9,1.2-1.6,2.1-2.1c0.9-0.5,1.9-0.7,3.1-0.7c1.5,0,2.7,0.4,3.8,1.2c1,0.8,1.7,1.9,2,3.3H660
			c-0.3-0.9-1-1.4-1.9-1.4c-0.7,0-1.2,0.3-1.6,0.8c-0.4,0.5-0.6,1.3-0.6,2.2c0,1,0.2,1.7,0.6,2.2c0.4,0.5,0.9,0.8,1.6,0.8
			c0.9,0,1.6-0.5,1.9-1.4h3.9c-0.3,1.4-1,2.5-2,3.3c-1,0.8-2.3,1.2-3.7,1.2c-1.2,0-2.2-0.2-3.1-0.7c-0.9-0.5-1.6-1.2-2.1-2.1
			c-0.5-0.9-0.8-2-0.8-3.2C652.2,281,652.4,279.9,653,278.9z"/>
		<path d="M677.6,277.5c0.8,0.9,1.2,2.1,1.2,3.7v7h-3.6v-6.5c0-0.8-0.2-1.4-0.6-1.9s-1-0.7-1.7-0.7c-0.7,0-1.3,0.2-1.7,0.7
			c-0.4,0.4-0.6,1.1-0.6,1.9v6.5h-3.7v-15.8h3.7v5.5c0.4-0.5,0.9-0.9,1.5-1.3c0.6-0.3,1.4-0.5,2.2-0.5
			C675.6,276.1,676.7,276.6,677.6,277.5z"/>
	</g>
	<g>
		<path d="M469.2,450.5c0.9-1.4,2.5-2.1,4.6-2.1c2.1,0,3.6,0.7,4.6,2.1c0.9,1.4,1.4,3.3,1.4,5.8c0,2.5-0.5,4.4-1.4,5.8
			c-0.9,1.4-2.5,2.1-4.6,2.1c-2.1,0-3.6-0.7-4.6-2.1c-0.9-1.4-1.4-3.4-1.4-5.8C467.8,453.9,468.3,451.9,469.2,450.5z M475.8,453
			c-0.3-0.8-1-1.2-1.9-1.2c-1,0-1.6,0.4-1.9,1.2c-0.3,0.8-0.5,1.9-0.5,3.3c0,1,0.1,1.8,0.2,2.4c0.1,0.6,0.3,1.1,0.7,1.5
			c0.3,0.4,0.9,0.6,1.6,0.6c0.7,0,1.2-0.2,1.6-0.6c0.3-0.4,0.6-0.9,0.7-1.5c0.1-0.6,0.2-1.4,0.2-2.4
			C476.2,454.9,476.1,453.8,475.8,453z"/>
		<path d="M484.4,449.6c0.9-0.8,2.2-1.2,3.8-1.2c1.1,0,2,0.2,2.7,0.6c0.8,0.4,1.3,0.9,1.7,1.5c0.4,0.6,0.6,1.4,0.6,2.2
			c0,0.9-0.2,1.7-0.7,2.3s-1,1-1.6,1.2v0.1c0.8,0.3,1.5,0.7,1.9,1.3c0.5,0.6,0.7,1.4,0.7,2.4c0,0.9-0.2,1.7-0.6,2.3s-1,1.2-1.8,1.6
			c-0.8,0.4-1.7,0.6-2.8,0.6c-1.7,0-3.1-0.4-4.1-1.3c-1-0.8-1.6-2.1-1.6-3.8h3.5c0,0.6,0.2,1.1,0.5,1.5c0.3,0.4,0.8,0.5,1.5,0.5
			c0.6,0,1-0.2,1.3-0.5c0.3-0.3,0.5-0.7,0.5-1.3c0-0.7-0.2-1.2-0.7-1.5c-0.4-0.3-1.1-0.5-2.1-0.5h-0.7v-3h0.7c0.7,0,1.3-0.1,1.8-0.4
			c0.4-0.2,0.7-0.7,0.7-1.3c0-0.5-0.1-0.9-0.4-1.2c-0.3-0.3-0.7-0.4-1.2-0.4c-0.5,0-0.9,0.2-1.2,0.5c-0.3,0.3-0.4,0.7-0.5,1.2h-3.6
			C483,451.6,483.5,450.4,484.4,449.6z"/>
		<path d="M497.3,463.9c-0.4-0.4-0.6-0.8-0.6-1.4c0-0.6,0.2-1,0.6-1.4s0.9-0.6,1.6-0.6c0.6,0,1.1,0.2,1.6,0.6s0.6,0.9,0.6,1.4
			c0,0.6-0.2,1-0.6,1.4c-0.4,0.4-0.9,0.6-1.6,0.6C498.3,464.5,497.7,464.3,497.3,463.9z"/>
		<path d="M519.7,450.3c1.2,0.6,2.1,1.5,2.7,2.6c0.6,1.1,1,2.4,1,3.9c0,1.5-0.3,2.8-1,3.9c-0.6,1.1-1.6,2-2.8,2.7
			c-1.2,0.6-2.6,0.9-4.1,0.9h-5.6v-15h5.6C517.1,449.3,518.5,449.6,519.7,450.3z M518.5,460c0.8-0.8,1.2-1.8,1.2-3.2
			c0-1.4-0.4-2.5-1.2-3.2c-0.8-0.8-1.8-1.2-3.2-1.2h-1.7v8.7h1.7C516.7,461.2,517.7,460.8,518.5,460z"/>
		<path d="M537.7,459.2h-8.3c0.1,0.7,0.3,1.3,0.7,1.7c0.4,0.4,0.9,0.6,1.6,0.6c0.9,0,1.5-0.4,1.9-1.2h3.9c-0.2,0.8-0.6,1.5-1.1,2.1
			c-0.5,0.6-1.2,1.1-2,1.5c-0.8,0.4-1.7,0.5-2.6,0.5c-1.2,0-2.2-0.2-3.1-0.7c-0.9-0.5-1.6-1.2-2.1-2.1c-0.5-0.9-0.8-2-0.8-3.3
			s0.3-2.3,0.8-3.3c0.5-0.9,1.2-1.6,2.1-2.1c0.9-0.5,2-0.7,3.1-0.7c1.2,0,2.2,0.2,3.1,0.7c0.9,0.5,1.6,1.2,2.1,2.1
			c0.5,0.9,0.8,1.9,0.8,3.1C537.8,458.5,537.7,458.9,537.7,459.2z M534,457.2c0-0.6-0.2-1.1-0.6-1.5c-0.4-0.4-1-0.6-1.6-0.6
			c-0.6,0-1.1,0.2-1.6,0.5c-0.4,0.4-0.7,0.9-0.8,1.5H534z"/>
		<path d="M542.8,464c-0.8-0.4-1.5-0.8-1.9-1.5c-0.5-0.6-0.7-1.3-0.8-2.1h3.6c0,0.4,0.2,0.7,0.6,1c0.3,0.3,0.8,0.4,1.3,0.4
			c0.5,0,0.8-0.1,1.1-0.3c0.2-0.2,0.4-0.4,0.4-0.7c0-0.3-0.2-0.6-0.5-0.8c-0.4-0.2-0.9-0.3-1.7-0.5c-0.9-0.2-1.6-0.4-2.1-0.6
			c-0.6-0.2-1.1-0.6-1.5-1c-0.4-0.5-0.6-1.1-0.6-1.9c0-0.7,0.2-1.3,0.6-1.9c0.4-0.6,0.9-1,1.7-1.3c0.7-0.3,1.6-0.5,2.6-0.5
			c1.5,0,2.7,0.4,3.5,1.1c0.9,0.7,1.4,1.7,1.5,3H547c-0.1-0.4-0.2-0.7-0.5-1c-0.3-0.2-0.7-0.4-1.2-0.4c-0.4,0-0.8,0.1-1,0.2
			c-0.2,0.2-0.3,0.4-0.3,0.7c0,0.3,0.2,0.6,0.5,0.8c0.4,0.2,0.9,0.3,1.7,0.5c0.9,0.2,1.6,0.5,2.2,0.7c0.6,0.2,1,0.6,1.5,1.1
			c0.4,0.5,0.6,1.2,0.7,2c0,0.7-0.2,1.3-0.6,1.9c-0.4,0.5-1,1-1.7,1.3c-0.7,0.3-1.6,0.5-2.6,0.5C544.6,464.5,543.6,464.3,542.8,464z
			"/>
		<path d="M554,450.6c-0.4-0.4-0.6-0.8-0.6-1.4c0-0.6,0.2-1,0.6-1.4c0.4-0.4,0.9-0.6,1.6-0.6c0.6,0,1.1,0.2,1.6,0.6
			c0.4,0.4,0.6,0.9,0.6,1.4c0,0.6-0.2,1-0.6,1.4c-0.4,0.4-0.9,0.6-1.6,0.6C554.9,451.2,554.4,451,554,450.6z M557.4,452.4v11.9h-3.7
			v-11.9H557.4z"/>
		<path d="M567.9,452.7c0.6,0.3,1.1,0.8,1.5,1.3v-1.7h3.7v11.9c0,1.1-0.2,2.1-0.7,3c-0.4,0.9-1.1,1.6-2,2.1s-2,0.8-3.3,0.8
			c-1.8,0-3.2-0.4-4.3-1.3c-1.1-0.8-1.7-2-1.9-3.4h3.6c0.1,0.5,0.4,0.8,0.8,1.1s1,0.4,1.6,0.4c0.8,0,1.4-0.2,1.8-0.7
			c0.4-0.4,0.7-1.1,0.7-2.1v-1.7c-0.4,0.6-0.8,1-1.5,1.4c-0.6,0.3-1.4,0.5-2.2,0.5c-1,0-1.9-0.3-2.7-0.8c-0.8-0.5-1.4-1.2-1.9-2.2
			c-0.5-0.9-0.7-2-0.7-3.2c0-1.2,0.2-2.3,0.7-3.2c0.5-0.9,1.1-1.6,1.9-2.1c0.8-0.5,1.7-0.7,2.7-0.7
			C566.5,452.2,567.2,452.4,567.9,452.7z M568.6,456.2c-0.5-0.5-1.1-0.8-1.8-0.8c-0.7,0-1.3,0.3-1.9,0.8c-0.5,0.5-0.8,1.2-0.8,2.1
			c0,0.9,0.3,1.6,0.8,2.2c0.5,0.5,1.1,0.8,1.9,0.8c0.7,0,1.3-0.3,1.8-0.8c0.5-0.5,0.8-1.2,0.8-2.2S569.1,456.7,568.6,456.2z"/>
		<path d="M587.3,453.6c0.8,0.9,1.3,2.1,1.3,3.7v7h-3.6v-6.5c0-0.8-0.2-1.4-0.6-1.9c-0.4-0.4-1-0.7-1.7-0.7c-0.7,0-1.3,0.2-1.7,0.7
			c-0.4,0.4-0.6,1.1-0.6,1.9v6.5h-3.7v-11.9h3.7v1.6c0.4-0.5,0.9-0.9,1.5-1.3c0.6-0.3,1.3-0.5,2.1-0.5
			C585.4,452.3,586.5,452.7,587.3,453.6z"/>
	</g>
	<g>
		<path d="M74.6,449.1c0.9-1.4,2.5-2.1,4.6-2.1c2.1,0,3.6,0.7,4.6,2.1c0.9,1.4,1.4,3.3,1.4,5.8c0,2.5-0.5,4.4-1.4,5.8
			c-0.9,1.4-2.5,2.1-4.6,2.1c-2.1,0-3.6-0.7-4.6-2.1c-0.9-1.4-1.4-3.4-1.4-5.8C73.2,452.4,73.7,450.5,74.6,449.1z M81.2,451.5
			c-0.3-0.8-1-1.2-1.9-1.2c-1,0-1.6,0.4-1.9,1.2c-0.3,0.8-0.5,1.9-0.5,3.3c0,1,0.1,1.8,0.2,2.4c0.1,0.6,0.3,1.1,0.7,1.5
			c0.3,0.4,0.9,0.6,1.6,0.6c0.7,0,1.2-0.2,1.6-0.6c0.3-0.4,0.6-0.9,0.7-1.5c0.1-0.6,0.2-1.4,0.2-2.4
			C81.6,453.4,81.5,452.3,81.2,451.5z"/>
		<path d="M88.3,460.1v-3l6.8-9.7h4.1v9.5h1.8v3.2h-1.8v2.8h-3.7v-2.8H88.3z M95.8,451.5l-3.6,5.4h3.6V451.5z"/>
		<path d="M104.3,462.5c-0.4-0.4-0.6-0.8-0.6-1.4c0-0.6,0.2-1,0.6-1.4c0.4-0.4,0.9-0.6,1.6-0.6c0.6,0,1.1,0.2,1.6,0.6
			c0.4,0.4,0.6,0.9,0.6,1.4c0,0.6-0.2,1-0.6,1.4c-0.4,0.4-0.9,0.6-1.6,0.6C105.2,463,104.7,462.9,104.3,462.5z"/>
		<path d="M126.6,448.8c1.2,0.6,2.1,1.5,2.7,2.6c0.6,1.1,1,2.4,1,3.9c0,1.5-0.3,2.8-1,3.9c-0.6,1.1-1.6,2-2.8,2.7
			c-1.2,0.6-2.6,0.9-4.1,0.9h-5.6v-15h5.6C124,447.9,125.4,448.2,126.6,448.8z M125.5,458.6c0.8-0.8,1.2-1.8,1.2-3.2
			c0-1.4-0.4-2.5-1.2-3.2c-0.8-0.8-1.8-1.2-3.2-1.2h-1.7v8.7h1.7C123.6,459.7,124.7,459.3,125.5,458.6z"/>
		<path d="M144.6,457.8h-8.3c0.1,0.7,0.3,1.3,0.7,1.7c0.4,0.4,0.9,0.6,1.6,0.6c0.9,0,1.5-0.4,1.9-1.2h3.9c-0.2,0.8-0.6,1.5-1.1,2.1
			c-0.5,0.6-1.2,1.1-2,1.5c-0.8,0.4-1.7,0.5-2.6,0.5c-1.2,0-2.2-0.2-3.1-0.7c-0.9-0.5-1.6-1.2-2.1-2.1c-0.5-0.9-0.8-2-0.8-3.3
			s0.3-2.3,0.8-3.3c0.5-0.9,1.2-1.6,2.1-2.1c0.9-0.5,2-0.7,3.1-0.7c1.2,0,2.2,0.2,3.1,0.7c0.9,0.5,1.6,1.2,2.1,2.1
			c0.5,0.9,0.8,1.9,0.8,3.1C144.7,457.1,144.7,457.4,144.6,457.8z M141,455.8c0-0.6-0.2-1.1-0.6-1.5c-0.4-0.4-1-0.6-1.6-0.6
			c-0.6,0-1.1,0.2-1.6,0.5c-0.4,0.4-0.7,0.9-0.8,1.5H141z"/>
		<path d="M153.1,459.4l2.6-8.5h3.9l-4.2,11.9h-4.5l-4.2-11.9h3.9L153.1,459.4z"/>
		<path d="M173.3,457.8h-8.3c0.1,0.7,0.3,1.3,0.7,1.7c0.4,0.4,0.9,0.6,1.6,0.6c0.9,0,1.5-0.4,1.9-1.2h3.9c-0.2,0.8-0.6,1.5-1.1,2.1
			c-0.5,0.6-1.2,1.1-2,1.5c-0.8,0.4-1.7,0.5-2.6,0.5c-1.2,0-2.2-0.2-3.1-0.7c-0.9-0.5-1.6-1.2-2.1-2.1c-0.5-0.9-0.8-2-0.8-3.3
			s0.3-2.3,0.8-3.3c0.5-0.9,1.2-1.6,2.1-2.1c0.9-0.5,2-0.7,3.1-0.7c1.2,0,2.2,0.2,3.1,0.7s1.6,1.2,2.1,2.1c0.5,0.9,0.8,1.9,0.8,3.1
			C173.4,457.1,173.4,457.4,173.3,457.8z M169.7,455.8c0-0.6-0.2-1.1-0.6-1.5c-0.4-0.4-1-0.6-1.6-0.6c-0.6,0-1.1,0.2-1.6,0.5
			c-0.4,0.4-0.7,0.9-0.8,1.5H169.7z"/>
		<path d="M180.1,447v15.8h-3.7V447H180.1z"/>
		<path d="M186,462.3c-0.9-0.5-1.7-1.2-2.2-2.1c-0.5-0.9-0.8-2-0.8-3.3c0-1.2,0.3-2.3,0.8-3.2c0.5-0.9,1.3-1.6,2.2-2.1
			c0.9-0.5,2-0.7,3.2-0.7c1.2,0,2.2,0.2,3.2,0.7c0.9,0.5,1.7,1.2,2.2,2.1c0.5,0.9,0.8,2,0.8,3.2s-0.3,2.3-0.8,3.2
			c-0.5,0.9-1.3,1.7-2.2,2.1c-0.9,0.5-2,0.7-3.2,0.7C188,463,187,462.8,186,462.3z M191,459.1c0.5-0.5,0.7-1.2,0.7-2.2
			c0-1-0.2-1.7-0.7-2.2c-0.5-0.5-1.1-0.8-1.8-0.8c-0.7,0-1.3,0.3-1.8,0.8c-0.5,0.5-0.7,1.2-0.7,2.2c0,1,0.2,1.7,0.7,2.2
			c0.5,0.5,1,0.8,1.7,0.8S190.5,459.6,191,459.1z"/>
		<path d="M203.6,451.3c0.6-0.3,1.4-0.5,2.2-0.5c1,0,1.9,0.2,2.7,0.7c0.8,0.5,1.4,1.2,1.9,2.1c0.5,0.9,0.7,2,0.7,3.2
			c0,1.2-0.2,2.3-0.7,3.2c-0.5,0.9-1.1,1.7-1.9,2.2c-0.8,0.5-1.7,0.8-2.7,0.8c-0.8,0-1.6-0.2-2.2-0.5c-0.6-0.3-1.1-0.8-1.5-1.3v7.4
			h-3.7v-17.6h3.7v1.7C202.5,452.1,203,451.6,203.6,451.3z M206.6,454.7c-0.5-0.5-1.1-0.8-1.9-0.8c-0.7,0-1.3,0.3-1.8,0.8
			c-0.5,0.5-0.8,1.2-0.8,2.2s0.3,1.6,0.8,2.2c0.5,0.5,1.1,0.8,1.8,0.8c0.7,0,1.3-0.3,1.9-0.8c0.5-0.5,0.8-1.3,0.8-2.2
			C207.3,456,207.1,455.3,206.6,454.7z"/>
		<path d="M232.8,452.2c0.9,0.9,1.3,2.1,1.3,3.7v7h-3.6v-6.5c0-0.8-0.2-1.4-0.6-1.8c-0.4-0.4-1-0.6-1.7-0.6c-0.7,0-1.3,0.2-1.7,0.6
			c-0.4,0.4-0.6,1-0.6,1.8v6.5h-3.6v-6.5c0-0.8-0.2-1.4-0.6-1.8c-0.4-0.4-1-0.6-1.7-0.6c-0.7,0-1.3,0.2-1.7,0.6
			c-0.4,0.4-0.6,1-0.6,1.8v6.5h-3.7v-11.9h3.7v1.5c0.4-0.5,0.9-0.9,1.5-1.2c0.6-0.3,1.3-0.4,2-0.4c0.9,0,1.7,0.2,2.4,0.6
			c0.7,0.4,1.3,0.9,1.7,1.6c0.4-0.7,1-1.2,1.7-1.6c0.7-0.4,1.5-0.6,2.3-0.6C230.8,450.8,231.9,451.3,232.8,452.2z"/>
		<path d="M249,457.8h-8.3c0.1,0.7,0.3,1.3,0.7,1.7c0.4,0.4,0.9,0.6,1.6,0.6c0.9,0,1.5-0.4,1.9-1.2h3.9c-0.2,0.8-0.6,1.5-1.1,2.1
			c-0.5,0.6-1.2,1.1-2,1.5c-0.8,0.4-1.7,0.5-2.6,0.5c-1.2,0-2.2-0.2-3.1-0.7c-0.9-0.5-1.6-1.2-2.1-2.1c-0.5-0.9-0.8-2-0.8-3.3
			s0.3-2.3,0.8-3.3c0.5-0.9,1.2-1.6,2.1-2.1c0.9-0.5,2-0.7,3.1-0.7c1.2,0,2.2,0.2,3.1,0.7s1.6,1.2,2.1,2.1c0.5,0.9,0.8,1.9,0.8,3.1
			C249,457.1,249,457.4,249,457.8z M245.3,455.8c0-0.6-0.2-1.1-0.6-1.5c-0.4-0.4-1-0.6-1.6-0.6c-0.6,0-1.1,0.2-1.6,0.5
			c-0.4,0.4-0.7,0.9-0.8,1.5H245.3z"/>
		<path d="M262.6,452.2c0.8,0.9,1.3,2.1,1.3,3.7v7h-3.6v-6.5c0-0.8-0.2-1.4-0.6-1.9c-0.4-0.4-1-0.7-1.7-0.7c-0.7,0-1.3,0.2-1.7,0.7
			c-0.4,0.4-0.6,1.1-0.6,1.9v6.5H252v-11.9h3.7v1.6c0.4-0.5,0.9-0.9,1.5-1.3c0.6-0.3,1.3-0.5,2.1-0.5
			C260.7,450.8,261.8,451.3,262.6,452.2z"/>
		<path d="M274.1,459.8v3.1h-1.9c-1.3,0-2.4-0.3-3.1-1c-0.7-0.6-1.1-1.7-1.1-3.2V454h-1.5v-3h1.5V448h3.7v2.9h2.4v3h-2.4v4.8
			c0,0.4,0.1,0.6,0.3,0.8c0.2,0.2,0.5,0.2,0.9,0.2H274.1z"/>
	</g>
	<g>
		<path d="M1.4,275.6c0.9-1.4,2.5-2.1,4.6-2.1c2.1,0,3.6,0.7,4.6,2.1c0.9,1.4,1.4,3.3,1.4,5.8c0,2.5-0.5,4.4-1.4,5.8
			c-0.9,1.4-2.5,2.1-4.6,2.1c-2.1,0-3.6-0.7-4.6-2.1c-0.9-1.4-1.4-3.4-1.4-5.8C0,278.9,0.5,277,1.4,275.6z M8,278.1
			c-0.3-0.8-1-1.2-1.9-1.2c-1,0-1.6,0.4-1.9,1.2c-0.3,0.8-0.5,1.9-0.5,3.3c0,1,0.1,1.8,0.2,2.4c0.1,0.6,0.3,1.1,0.7,1.5
			c0.3,0.4,0.9,0.6,1.6,0.6c0.7,0,1.2-0.2,1.6-0.6c0.3-0.4,0.6-0.9,0.7-1.5c0.1-0.6,0.2-1.4,0.2-2.4C8.4,279.9,8.3,278.8,8,278.1z"
			/>
		<path d="M26,277h-6.7v3c0.3-0.3,0.7-0.6,1.2-0.8c0.5-0.2,1.1-0.3,1.7-0.3c1.1,0,2,0.2,2.7,0.7c0.7,0.5,1.2,1.1,1.6,1.9
			c0.3,0.8,0.5,1.6,0.5,2.5c0,1.7-0.5,3-1.4,4c-0.9,1-2.3,1.5-4,1.5c-1.1,0-2.1-0.2-3-0.6c-0.8-0.4-1.5-0.9-1.9-1.6
			c-0.5-0.7-0.7-1.5-0.7-2.4h3.6c0.1,0.4,0.3,0.8,0.6,1.1c0.3,0.3,0.8,0.4,1.3,0.4c0.7,0,1.2-0.2,1.5-0.6c0.3-0.4,0.5-1,0.5-1.7
			c0-0.7-0.2-1.2-0.5-1.6c-0.3-0.4-0.8-0.6-1.5-0.6c-0.5,0-0.9,0.1-1.2,0.4c-0.3,0.2-0.5,0.5-0.6,0.9H16v-9.3h10V277z"/>
		<path d="M30.5,289c-0.4-0.4-0.6-0.8-0.6-1.4c0-0.6,0.2-1,0.6-1.4c0.4-0.4,0.9-0.6,1.6-0.6c0.6,0,1.1,0.2,1.6,0.6
			c0.4,0.4,0.6,0.9,0.6,1.4c0,0.6-0.2,1-0.6,1.4c-0.4,0.4-0.9,0.6-1.6,0.6C31.4,289.6,30.9,289.4,30.5,289z"/>
		<path d="M46.3,288.6c-1.2-0.7-2.1-1.6-2.8-2.7c-0.7-1.2-1-2.5-1-4s0.3-2.8,1-4c0.7-1.2,1.6-2.1,2.8-2.7c1.2-0.7,2.5-1,3.9-1
			c1.4,0,2.7,0.3,3.9,1c1.2,0.7,2.1,1.6,2.8,2.7c0.7,1.2,1,2.5,1,4s-0.3,2.8-1,4c-0.7,1.2-1.6,2.1-2.8,2.7c-1.2,0.7-2.5,1-3.9,1
			C48.7,289.6,47.4,289.2,46.3,288.6z M53,285c0.7-0.8,1.1-1.9,1.1-3.2c0-1.3-0.4-2.4-1.1-3.2c-0.7-0.8-1.7-1.2-2.9-1.2
			c-1.2,0-2.2,0.4-2.9,1.2c-0.7,0.8-1.1,1.8-1.1,3.2c0,1.3,0.4,2.4,1.1,3.2c0.7,0.8,1.7,1.2,2.9,1.2C51.3,286.2,52.3,285.8,53,285z"
			/>
		<path d="M66.1,277.8c0.6-0.3,1.4-0.5,2.2-0.5c1,0,1.9,0.2,2.7,0.7c0.8,0.5,1.4,1.2,1.9,2.1c0.5,0.9,0.7,2,0.7,3.2
			c0,1.2-0.2,2.3-0.7,3.2c-0.5,0.9-1.1,1.7-1.9,2.2c-0.8,0.5-1.7,0.8-2.7,0.8c-0.8,0-1.6-0.2-2.2-0.5c-0.6-0.3-1.1-0.8-1.5-1.3v7.4
			h-3.7v-17.6h3.7v1.7C64.9,278.6,65.4,278.2,66.1,277.8z M69,281.3c-0.5-0.5-1.1-0.8-1.9-0.8c-0.7,0-1.3,0.3-1.8,0.8
			c-0.5,0.5-0.8,1.2-0.8,2.2s0.3,1.6,0.8,2.2c0.5,0.5,1.1,0.8,1.8,0.8c0.7,0,1.3-0.3,1.9-0.8c0.5-0.5,0.8-1.3,0.8-2.2
			C69.8,282.5,69.5,281.8,69,281.3z"/>
		<path d="M83.2,286.3v3.1h-1.9c-1.3,0-2.4-0.3-3.1-1c-0.7-0.6-1.1-1.7-1.1-3.2v-4.7h-1.5v-3h1.5v-2.9h3.7v2.9h2.4v3h-2.4v4.8
			c0,0.4,0.1,0.6,0.3,0.8c0.2,0.2,0.5,0.2,0.9,0.2H83.2z"/>
		<path d="M86.5,275.7c-0.4-0.4-0.6-0.8-0.6-1.4c0-0.6,0.2-1,0.6-1.4c0.4-0.4,0.9-0.6,1.6-0.6c0.6,0,1.1,0.2,1.6,0.6
			c0.4,0.4,0.6,0.9,0.6,1.4c0,0.6-0.2,1-0.6,1.4c-0.4,0.4-0.9,0.6-1.6,0.6C87.5,276.2,86.9,276,86.5,275.7z M89.9,277.5v11.9h-3.7
			v-11.9H89.9z"/>
		<path d="M112.4,278.7c0.9,0.9,1.3,2.1,1.3,3.7v7h-3.6v-6.5c0-0.8-0.2-1.4-0.6-1.8c-0.4-0.4-1-0.6-1.7-0.6s-1.3,0.2-1.7,0.6
			c-0.4,0.4-0.6,1-0.6,1.8v6.5h-3.6v-6.5c0-0.8-0.2-1.4-0.6-1.8c-0.4-0.4-1-0.6-1.7-0.6s-1.3,0.2-1.7,0.6c-0.4,0.4-0.6,1-0.6,1.8
			v6.5h-3.7v-11.9h3.7v1.5c0.4-0.5,0.9-0.9,1.5-1.2c0.6-0.3,1.3-0.4,2-0.4c0.9,0,1.7,0.2,2.4,0.6c0.7,0.4,1.3,0.9,1.7,1.6
			c0.4-0.7,1-1.2,1.7-1.6c0.7-0.4,1.5-0.6,2.3-0.6C110.3,277.3,111.5,277.8,112.4,278.7z"/>
		<path d="M117.6,275.7c-0.4-0.4-0.6-0.8-0.6-1.4c0-0.6,0.2-1,0.6-1.4c0.4-0.4,0.9-0.6,1.6-0.6c0.6,0,1.1,0.2,1.6,0.6
			c0.4,0.4,0.6,0.9,0.6,1.4c0,0.6-0.2,1-0.6,1.4c-0.4,0.4-0.9,0.6-1.6,0.6C118.6,276.2,118,276,117.6,275.7z M121,277.5v11.9h-3.7
			v-11.9H121z"/>
		<path d="M128.2,286.4h5.2v3h-9.3v-2.9l5-6h-4.9v-3h9.1v2.9L128.2,286.4z"/>
		<path d="M136.4,280.2c0.5-0.9,1.1-1.6,1.9-2.1c0.8-0.5,1.7-0.7,2.7-0.7c0.8,0,1.6,0.2,2.2,0.5c0.6,0.3,1.1,0.8,1.5,1.3v-1.7h3.7
			v11.9h-3.7v-1.7c-0.4,0.6-0.9,1-1.5,1.3c-0.6,0.3-1.4,0.5-2.2,0.5c-1,0-1.9-0.3-2.7-0.8c-0.8-0.5-1.4-1.2-1.9-2.2
			c-0.5-0.9-0.7-2-0.7-3.2C135.7,282.2,135.9,281.1,136.4,280.2z M143.9,281.3c-0.5-0.5-1.1-0.8-1.8-0.8c-0.7,0-1.3,0.3-1.9,0.8
			c-0.5,0.5-0.8,1.2-0.8,2.1c0,0.9,0.3,1.6,0.8,2.2c0.5,0.5,1.1,0.8,1.9,0.8c0.7,0,1.3-0.3,1.8-0.8c0.5-0.5,0.8-1.2,0.8-2.2
			S144.4,281.8,143.9,281.3z"/>
		<path d="M158.6,286.3v3.1h-1.9c-1.3,0-2.4-0.3-3.1-1c-0.7-0.6-1.1-1.7-1.1-3.2v-4.7h-1.5v-3h1.5v-2.9h3.7v2.9h2.4v3h-2.4v4.8
			c0,0.4,0.1,0.6,0.3,0.8c0.2,0.2,0.5,0.2,0.9,0.2H158.6z"/>
		<path d="M162,275.7c-0.4-0.4-0.6-0.8-0.6-1.4c0-0.6,0.2-1,0.6-1.4c0.4-0.4,0.9-0.6,1.6-0.6c0.6,0,1.1,0.2,1.6,0.6
			c0.4,0.4,0.6,0.9,0.6,1.4c0,0.6-0.2,1-0.6,1.4c-0.4,0.4-0.9,0.6-1.6,0.6C162.9,276.2,162.4,276,162,275.7z M165.4,277.5v11.9h-3.7
			v-11.9H165.4z"/>
		<path d="M171.4,288.8c-0.9-0.5-1.7-1.2-2.2-2.1c-0.5-0.9-0.8-2-0.8-3.3c0-1.2,0.3-2.3,0.8-3.2c0.5-0.9,1.3-1.6,2.2-2.1
			c0.9-0.5,2-0.7,3.2-0.7c1.2,0,2.2,0.2,3.2,0.7c0.9,0.5,1.7,1.2,2.2,2.1c0.5,0.9,0.8,2,0.8,3.2c0,1.2-0.3,2.3-0.8,3.2
			c-0.5,0.9-1.3,1.7-2.2,2.1c-0.9,0.5-2,0.7-3.2,0.7C173.4,289.6,172.3,289.3,171.4,288.8z M176.3,285.6c0.5-0.5,0.7-1.2,0.7-2.2
			c0-1-0.2-1.7-0.7-2.2c-0.5-0.5-1.1-0.8-1.8-0.8c-0.7,0-1.3,0.3-1.8,0.8c-0.5,0.5-0.7,1.2-0.7,2.2c0,1,0.2,1.7,0.7,2.2
			c0.5,0.5,1,0.8,1.7,0.8S175.9,286.2,176.3,285.6z"/>
		<path d="M194.4,278.7c0.8,0.9,1.3,2.1,1.3,3.7v7H192v-6.5c0-0.8-0.2-1.4-0.6-1.9c-0.4-0.4-1-0.7-1.7-0.7c-0.7,0-1.3,0.2-1.7,0.7
			c-0.4,0.4-0.6,1.1-0.6,1.9v6.5h-3.7v-11.9h3.7v1.6c0.4-0.5,0.9-0.9,1.5-1.3c0.6-0.3,1.3-0.5,2.1-0.5
			C192.5,277.3,193.6,277.8,194.4,278.7z"/>
	</g>
	<g>
		<path d="M91.1,98.9c0.9-1.4,2.5-2.1,4.6-2.1c2.1,0,3.6,0.7,4.6,2.1c0.9,1.4,1.4,3.3,1.4,5.8c0,2.5-0.5,4.4-1.4,5.8
			c-0.9,1.4-2.5,2.1-4.6,2.1c-2.1,0-3.6-0.7-4.6-2.1c-0.9-1.4-1.4-3.4-1.4-5.8C89.7,102.3,90.2,100.3,91.1,98.9z M97.6,101.4
			c-0.3-0.8-1-1.2-1.9-1.2c-1,0-1.6,0.4-1.9,1.2c-0.3,0.8-0.5,1.9-0.5,3.3c0,1,0.1,1.8,0.2,2.4c0.1,0.6,0.3,1.1,0.7,1.5
			c0.3,0.4,0.9,0.6,1.6,0.6c0.7,0,1.2-0.2,1.6-0.6c0.3-0.4,0.6-0.9,0.7-1.5c0.1-0.6,0.2-1.4,0.2-2.4C98.1,103.3,98,102.2,97.6,101.4
			z"/>
		<path d="M111.8,100.1c-0.3-0.3-0.7-0.4-1.2-0.4c-0.8,0-1.4,0.4-1.8,1.1c-0.4,0.7-0.5,1.8-0.6,3.3c0.3-0.5,0.8-0.9,1.4-1.2
			c0.6-0.3,1.2-0.4,2-0.4c1.4,0,2.5,0.4,3.4,1.3c0.8,0.9,1.3,2.1,1.3,3.7c0,1-0.2,2-0.6,2.7c-0.4,0.8-1,1.4-1.8,1.8
			c-0.8,0.4-1.8,0.7-2.9,0.7c-2.2,0-3.7-0.7-4.6-2.1c-0.9-1.4-1.3-3.4-1.3-5.9c0-2.7,0.5-4.7,1.4-6c0.9-1.3,2.4-2,4.4-2
			c1.1,0,2,0.2,2.7,0.6c0.7,0.4,1.3,1,1.7,1.7c0.4,0.7,0.6,1.4,0.7,2.2h-3.4C112.3,100.8,112.1,100.4,111.8,100.1z M109.2,106
			c-0.4,0.4-0.6,0.9-0.6,1.6c0,0.7,0.2,1.2,0.6,1.6c0.4,0.4,0.9,0.6,1.6,0.6c0.6,0,1.1-0.2,1.5-0.6c0.4-0.4,0.5-0.9,0.5-1.6
			c0-0.7-0.2-1.2-0.5-1.6c-0.4-0.4-0.9-0.6-1.5-0.6C110.1,105.4,109.6,105.6,109.2,106z"/>
		<path d="M119.9,112.3c-0.4-0.4-0.6-0.8-0.6-1.4c0-0.6,0.2-1,0.6-1.4c0.4-0.4,0.9-0.6,1.6-0.6c0.6,0,1.1,0.2,1.6,0.6
			c0.4,0.4,0.6,0.9,0.6,1.4c0,0.6-0.2,1-0.6,1.4c-0.4,0.4-0.9,0.6-1.6,0.6C120.8,112.9,120.3,112.7,119.9,112.3z"/>
		<path d="M136.1,109.9h4.8v2.8h-8.4v-15h3.7V109.9z"/>
		<path d="M143.7,103.5c0.5-0.9,1.1-1.6,1.9-2.1c0.8-0.5,1.7-0.7,2.7-0.7c0.8,0,1.6,0.2,2.2,0.5s1.1,0.8,1.5,1.3v-1.7h3.7v11.9h-3.7
			V111c-0.4,0.6-0.9,1-1.5,1.3c-0.6,0.3-1.4,0.5-2.2,0.5c-1,0-1.9-0.3-2.7-0.8s-1.4-1.2-1.9-2.2c-0.5-0.9-0.7-2-0.7-3.2
			S143.2,104.4,143.7,103.5z M151.2,104.6c-0.5-0.5-1.1-0.8-1.8-0.8c-0.7,0-1.3,0.3-1.9,0.8c-0.5,0.5-0.8,1.2-0.8,2.1
			c0,0.9,0.3,1.6,0.8,2.2c0.5,0.5,1.1,0.8,1.9,0.8c0.7,0,1.3-0.3,1.8-0.8c0.5-0.5,0.8-1.2,0.8-2.2
			C151.9,105.9,151.7,105.1,151.2,104.6z"/>
		<path d="M171.1,100.8v11.9h-3.7v-1.6c-0.4,0.5-0.9,1-1.5,1.3c-0.6,0.3-1.3,0.5-2.1,0.5c-0.9,0-1.7-0.2-2.4-0.6s-1.2-1-1.6-1.8
			c-0.4-0.8-0.6-1.7-0.6-2.7v-7h3.6v6.5c0,0.8,0.2,1.4,0.6,1.9c0.4,0.4,1,0.7,1.7,0.7c0.7,0,1.3-0.2,1.7-0.7
			c0.4-0.4,0.6-1.1,0.6-1.9v-6.5H171.1z"/>
		<path d="M185.4,102c0.8,0.9,1.3,2.1,1.3,3.7v7H183v-6.5c0-0.8-0.2-1.4-0.6-1.9s-1-0.7-1.7-0.7c-0.7,0-1.3,0.2-1.7,0.7
			c-0.4,0.4-0.6,1.1-0.6,1.9v6.5h-3.7v-11.9h3.7v1.6c0.4-0.5,0.9-0.9,1.5-1.3c0.6-0.3,1.3-0.5,2.1-0.5
			C183.5,100.7,184.6,101.1,185.4,102z"/>
		<path d="M190.3,103.5c0.5-0.9,1.2-1.6,2.1-2.1c0.9-0.5,1.9-0.7,3.1-0.7c1.5,0,2.7,0.4,3.8,1.2c1,0.8,1.7,1.9,2,3.3h-3.9
			c-0.3-0.9-1-1.4-1.9-1.4c-0.7,0-1.2,0.3-1.6,0.8c-0.4,0.5-0.6,1.3-0.6,2.2c0,1,0.2,1.7,0.6,2.2c0.4,0.5,0.9,0.8,1.6,0.8
			c0.9,0,1.6-0.5,1.9-1.4h3.9c-0.3,1.4-1,2.5-2,3.3c-1,0.8-2.3,1.2-3.7,1.2c-1.2,0-2.2-0.2-3.1-0.7c-0.9-0.5-1.6-1.2-2.1-2.1
			c-0.5-0.9-0.8-2-0.8-3.2C189.5,105.5,189.8,104.4,190.3,103.5z"/>
		<path d="M214.9,102c0.8,0.9,1.2,2.1,1.2,3.7v7h-3.6v-6.5c0-0.8-0.2-1.4-0.6-1.9s-1-0.7-1.7-0.7c-0.7,0-1.3,0.2-1.7,0.7
			c-0.4,0.4-0.6,1.1-0.6,1.9v6.5h-3.7V96.9h3.7v5.5c0.4-0.5,0.9-0.9,1.5-1.3c0.6-0.3,1.4-0.5,2.2-0.5
			C213,100.7,214.1,101.1,214.9,102z"/>
	</g>
	<g>
		<g>
			<g>
				<path class="st3" d="M539.2,48.1c-0.3,0-0.6-0.3-0.6-0.6c0-0.3,0.3-0.6,0.6-0.6s0.6,0.3,0.6,0.6
					C539.8,47.8,539.5,48.1,539.2,48.1z"/>
			</g>
		</g>
		<g>
			<g>
				<path class="st3" d="M508.3,60.3c-0.3,0-0.6-0.3-0.6-0.6v-7.2c0-0.3,0.3-0.6,0.6-0.6h1.1c0.6-0.1,5.2-1.8,5.3-21.7
					c0-0.1,0-0.1-0.1-0.1c0,0-0.1-0.1-0.1-0.1h-3.1c-2,0-3.6-1.6-3.6-3.6v-4.2c0-0.3,0.3-0.6,0.6-0.6h4.6c0.3,0,0.6,0.3,0.6,0.6v2.3
					c0,0.1,0.1,0.2,0.2,0.2h2.3c0.1,0,0.2-0.1,0.2-0.2v-2.3c0-0.3,0.3-0.6,0.6-0.6h4.6c0.3,0,0.6,0.3,0.6,0.6v2.3
					c0,0.1,0.1,0.2,0.2,0.2h2.3c0.1,0,0.2-0.1,0.2-0.2v-2.3c0-0.3,0.3-0.6,0.6-0.6h4.6c0.3,0,0.6,0.3,0.6,0.6v4.2
					c0,2-1.6,3.6-3.6,3.6h-3.1c-0.1,0-0.1,0-0.1,0.1c0,0-0.1,0.1-0.1,0.1c0.1,16.6,3.3,20.5,4.7,21.5c0,0,0.1,0,0.1,0c0,0,0,0,0.1,0
					c0.2-0.1,0.5-0.2,0.7-0.3c1.4-0.7,2.4-2,3.1-3.8c0.6-1.5,0.9-3.4,1-5.5c0-0.1,0-0.1-0.1-0.2c-2.3-1.2-3.8-3.5-3.8-6.1
					c0-3.8,3.1-6.9,6.9-6.9c3.8,0,6.9,3.1,6.9,6.9c0,2.6-1.5,5-3.8,6.1c-0.1,0-0.1,0.1-0.1,0.2c0,0.7,0.1,1.4,0.1,2
					c0,0.3-0.2,0.6-0.5,0.6l-0.1,0c-0.3,0-0.5-0.2-0.6-0.5c-0.1-0.5-0.1-1.1-0.1-1.6c0-0.1,0-0.1-0.1-0.2c0,0-0.1,0-0.1,0
					c0,0,0,0,0,0c-0.5,0.1-1.1,0.2-1.6,0.2c-0.5,0-1.1-0.1-1.6-0.2c0,0,0,0,0,0c0,0-0.1,0-0.1,0c0,0-0.1,0.1-0.1,0.2
					c-0.1,2.1-0.4,3.9-1,5.4c-0.3,0.8-0.7,1.5-1.1,2.1c-0.4,0.5-0.8,1-1.3,1.4l-0.1,0c-0.1,0.1-0.1,0.2-0.1,0.2
					c0,0.1,0.1,0.2,0.2,0.2h10.4c0.1,0,0.2-0.1,0.2-0.1c0-0.1,0-0.2-0.1-0.2c-0.3-0.2-0.5-0.5-0.8-0.8c-0.1-0.1-0.1-0.3-0.1-0.4
					c0-0.1,0.1-0.3,0.2-0.4c0.1-0.1,0.2-0.1,0.4-0.1c0.2,0,0.3,0.1,0.4,0.2c0.6,0.7,1.4,1.3,2.2,1.6c0.7,0.3,1.2,0.3,1.2,0.3h1.1
					c0.3,0,0.6,0.3,0.6,0.6v7.2c0,0.3-0.3,0.6-0.6,0.6H508.3z M526.8,53.1c-0.1,0-0.2,0.1-0.2,0.2V59c0,0.1,0.1,0.2,0.2,0.2h18.3
					c0.1,0,0.2-0.1,0.2-0.2v-5.7c0-0.1-0.1-0.2-0.2-0.2H526.8z M509.1,53.1c-0.1,0-0.2,0.1-0.2,0.2V59c0,0.1,0.1,0.2,0.2,0.2h16.2
					c0.1,0,0.2-0.1,0.2-0.2v-5.7c0-0.1-0.1-0.2-0.2-0.2H509.1z M516,30c-0.1,0-0.2,0.1-0.2,0.2c-0.1,9.1-1,15.7-3,19.5
					c-0.4,0.7-0.8,1.3-1.2,1.8c0,0.1-0.1,0.1,0,0.2c0,0.1,0.1,0.1,0.2,0.1h14.3c0.1,0,0.1,0,0.2-0.1c0-0.1,0-0.2,0-0.2
					c-0.4-0.5-0.8-1.1-1.2-1.8c-1.9-3.8-2.9-10.4-3-19.5c0-0.1-0.1-0.2-0.2-0.2H516z M535.9,30c-3.2,0-5.7,2.6-5.7,5.7
					c0,2.2,1.3,4.2,3.3,5.2c0.8,0.4,1.6,0.6,2.5,0.6c0.9,0,1.7-0.2,2.5-0.6c2-0.9,3.3-3,3.3-5.2C541.7,32.6,539.1,30,535.9,30z
					 M509.1,22.8c-0.1,0-0.2,0.1-0.2,0.2v3.4c0,1.4,1.1,2.5,2.5,2.5h15.3c1.4,0,2.5-1.1,2.5-2.5V23c0-0.1-0.1-0.2-0.2-0.2h-3.1
					c-0.1,0-0.2,0.1-0.2,0.2v2.3c0,0.3-0.3,0.6-0.6,0.6h-3.8c-0.3,0-0.6-0.3-0.6-0.6V23c0-0.1-0.1-0.2-0.2-0.2h-3.1
					c-0.1,0-0.2,0.1-0.2,0.2v2.3c0,0.3-0.3,0.6-0.6,0.6h-3.8c-0.3,0-0.6-0.3-0.6-0.6V23c0-0.1-0.1-0.2-0.2-0.2H509.1z"/>
			</g>
		</g>
	</g>
	<g>
		<g>
			<g>
				<path class="st3" d="M175.2,41.1c-0.1,0-0.3-0.1-0.4-0.2c-0.2-0.2-0.2-0.5,0-0.7c0.1-0.1,0.2-0.2,0.4-0.2c0.1,0,0.3,0.1,0.4,0.2
					c0.2,0.2,0.2,0.5,0,0.7C175.5,41,175.3,41.1,175.2,41.1z M182.3,36.8c-0.9,0-1.8-0.4-2.4-1c-1.3-1.3-1.3-3.5,0-4.8
					c0.6-0.6,1.5-1,2.4-1c0.9,0,1.8,0.4,2.4,1c0.6,0.6,1,1.5,1,2.4c0,0.9-0.4,1.8-1,2.4C184.1,36.5,183.3,36.8,182.3,36.8
					L182.3,36.8z M182.3,31.1c-0.6,0-1.2,0.2-1.7,0.7c-0.4,0.4-0.7,1-0.7,1.7c0,0.6,0.2,1.2,0.7,1.7c0.4,0.4,1,0.7,1.7,0.7
					c0.6,0,1.2-0.2,1.7-0.7c0.4-0.4,0.7-1,0.7-1.7s-0.2-1.2-0.7-1.7C183.6,31.3,183,31.1,182.3,31.1z"/>
			</g>
		</g>
		<g>
			<g>
				<path class="st3" d="M176.2,52.3c-0.1,0-0.3-0.1-0.4-0.2c-0.2-0.2-0.2-0.5,0-0.7c1.5-1.5,1.4-3.4,1.3-4c0,0,0-0.1-0.1-0.1
					l-0.3-0.3c0,0-0.1-0.1-0.1-0.1c0,0-0.1,0-0.1,0c-1.2,0.5-2.3,0.9-3.5,1.2c-0.1,0-0.3,0.1-0.4,0.1c-0.2,0-0.5,0-0.7-0.1
					c0,0,0,0-0.1,0c-0.1,0-0.1,0-0.2,0.1c-0.3,0.7-0.8,1.3-1.3,1.9c-1.8,1.8-6.3,2.2-6.5,2.2h-0.1c-0.3,0-0.5-0.3-0.5-0.6
					c0-0.2,0.4-4.7,2.2-6.5c0.6-0.6,1.2-1,1.9-1.3c0.1,0,0.1-0.2,0.1-0.3c-0.1-0.4-0.2-0.8-0.1-1.1c0.3-1.1,0.7-2.3,1.2-3.5
					c0-0.1,0-0.2,0-0.2l-0.3-0.3c0,0-0.1-0.1-0.1-0.1c-0.1,0-0.4,0-0.6,0c-0.9,0-2.2,0.2-3.4,1.4c-0.1,0.1-0.2,0.2-0.4,0.2
					c-0.3,0-0.5-0.2-0.5-0.5c0-2.8,1.7-6.7,4.3-8.1c0.7-0.4,1.5-0.6,2.3-0.6c1,0,2,0.3,3,0.9c0,0,0.1,0,0.1,0c0.1,0,0.1,0,0.2-0.1
					c0.5-0.6,1-1.1,1.5-1.7c2.4-2.4,5.4-4.2,9.1-5.5c4.6-1.6,8.4-1.8,8.6-1.8c0,0,0,0,0,0c0.2,0,0.3,0.1,0.4,0.2
					c0.1,0.1,0.2,0.2,0.2,0.4c0,0.2-0.2,4-1.8,8.6c-1.3,3.7-3.2,6.7-5.5,9.1c-0.5,0.5-1.1,1.1-1.7,1.5c-0.1,0.1-0.1,0.2,0,0.3
					c1.3,2.3,0.9,4.1,0.3,5.2C182.9,50.7,179,52.3,176.2,52.3z M168.4,44.8C168.4,44.8,168.3,44.8,168.4,44.8
					c-0.8,0.3-1.4,0.7-2,1.3c-1.1,1.1-1.6,3.8-1.8,4.9c0,0.1,0,0.1,0.1,0.2c0,0,0.1,0.1,0.1,0.1c0,0,0,0,0,0
					c1.1-0.2,3.8-0.7,4.9-1.8c0.6-0.6,1-1.2,1.3-1.9c0-0.1,0-0.2,0-0.2l-2.4-2.4C168.5,44.8,168.4,44.8,168.4,44.8z M183.1,43.4
					c0,0-0.1,0-0.1,0c-1.5,1.2-3.2,2.2-4.9,3c-0.1,0-0.1,0.1-0.1,0.1c0,0.1,0,0.1,0,0.2c0.1,0.1,0.2,0.2,0.2,0.3
					c0.2,0.9,0.1,2.5-0.6,3.8c0,0.1,0,0.2,0,0.2c0,0.1,0.1,0.1,0.2,0.1c0,0,0,0,0,0c2.1-0.4,4.6-1.7,5.6-3.6c0.7-1.2,0.6-2.6-0.2-4
					C183.2,43.4,183.2,43.4,183.1,43.4C183.1,43.4,183.1,43.4,183.1,43.4z M169.6,40c-0.1,0-0.1,0.1-0.1,0.1
					c-0.4,0.9-0.7,1.9-0.9,2.8c-0.1,0.3,0,0.6,0.3,0.8l3.3,3.3c0.2,0.2,0.4,0.3,0.6,0.3c0.1,0,0.1,0,0.2,0c0.9-0.2,1.8-0.5,2.8-0.9
					c0.1,0,0.1-0.1,0.1-0.1c0-0.1,0-0.1-0.1-0.2l-6-6C169.8,40,169.7,39.9,169.6,40C169.7,39.9,169.6,39.9,169.6,40z M183.9,25.6
					C183.9,25.6,183.9,25.6,183.9,25.6c-3.4,1.2-6.2,3-8.3,5.1c-0.7,0.7-1.3,1.4-1.9,2.1c-1.4,1.8-2.6,3.7-3.6,5.8
					c0,0.1,0,0.2,0,0.2l6.8,6.8c0,0,0.1,0.1,0.1,0.1c0,0,0.1,0,0.1,0c2.1-1,4-2.2,5.8-3.6c0.7-0.6,1.4-1.2,2.1-1.9
					c2.2-2.2,3.9-4.9,5.1-8.3c0-0.1,0-0.2,0-0.2l-6-6C184,25.6,184,25.6,183.9,25.6z M170.1,31.9c-0.6,0-1.2,0.2-1.8,0.5
					c-1.9,1-3.2,3.6-3.6,5.6c0,0.1,0,0.2,0.1,0.2c0,0,0.1,0,0.1,0c0,0,0.1,0,0.1,0c1-0.6,2.1-0.7,2.8-0.7c0.6,0,1,0.1,1,0.1
					c0.1,0,0.2,0.1,0.3,0.2c0,0,0,0,0.1,0c0,0,0.1,0,0.1,0c0,0,0,0,0.1,0c0.1,0,0.1-0.1,0.1-0.1c0.8-1.7,1.8-3.4,3-4.9
					c0,0,0-0.1,0-0.2c0-0.1,0-0.1-0.1-0.1C171.5,32.1,170.8,31.9,170.1,31.9z M191.7,23.8c-1.2,0.1-3.6,0.4-6.4,1.3
					c-0.1,0-0.1,0.1-0.1,0.1c0,0.1,0,0.1,0.1,0.2l5,5c0,0,0.1,0.1,0.1,0.1c0,0,0,0,0,0c0.1,0,0.1-0.1,0.1-0.1
					c0.9-2.8,1.2-5.2,1.3-6.4c0-0.1,0-0.1-0.1-0.2C191.9,23.8,191.8,23.8,191.7,23.8C191.8,23.8,191.8,23.8,191.7,23.8z"/>
			</g>
		</g>
		<g>
			<g>
				<path class="st3" d="M163.2,59.3c-0.1,0-0.3-0.1-0.4-0.2c-0.2-0.2-0.2-0.5,0-0.7l4.9-4.9c0.1-0.1,0.2-0.2,0.4-0.2
					c0.1,0,0.3,0.1,0.4,0.2s0.2,0.2,0.2,0.4c0,0.1-0.1,0.3-0.2,0.4l-4.9,4.9C163.4,59.2,163.3,59.3,163.2,59.3L163.2,59.3z
					 M157.4,59.3c-0.1,0-0.3-0.1-0.4-0.2c-0.1-0.1-0.2-0.2-0.2-0.4c0-0.1,0.1-0.3,0.2-0.4l4.9-4.9c0.1-0.1,0.2-0.2,0.4-0.2
					c0.1,0,0.3,0.1,0.4,0.2c0.2,0.2,0.2,0.5,0,0.7l-4.9,4.9C157.7,59.2,157.5,59.3,157.4,59.3L157.4,59.3z M171.1,55.4
					c-0.1,0-0.3-0.1-0.4-0.2c-0.1-0.1-0.2-0.2-0.2-0.4c0-0.1,0.1-0.3,0.2-0.4l2-2c0.1-0.1,0.2-0.2,0.4-0.2c0.1,0,0.3,0.1,0.4,0.2
					c0.2,0.2,0.2,0.5,0,0.7l-2,2C171.4,55.3,171.3,55.4,171.1,55.4z M157,53.1c-0.1,0-0.3-0.1-0.4-0.2c-0.1-0.1-0.2-0.2-0.2-0.4
					c0-0.1,0.1-0.3,0.2-0.4l4.9-4.9c0.1-0.1,0.2-0.2,0.4-0.2c0.1,0,0.3,0.1,0.4,0.2c0.2,0.2,0.2,0.5,0,0.7l-4.9,4.9
					C157.3,53.1,157.2,53.1,157,53.1z M160.9,45.2c-0.1,0-0.3-0.1-0.4-0.2c-0.1-0.1-0.2-0.2-0.2-0.4c0-0.1,0.1-0.3,0.2-0.4l2-2
					c0.1-0.1,0.2-0.2,0.4-0.2c0.1,0,0.3,0.1,0.4,0.2c0.1,0.1,0.2,0.2,0.2,0.4c0,0.1-0.1,0.3-0.2,0.4l-2,2
					C161.2,45.1,161.1,45.2,160.9,45.2L160.9,45.2z M177.2,39.1c-0.1,0-0.3-0.1-0.4-0.2c-0.1-0.1-0.2-0.2-0.2-0.4
					c0-0.1,0.1-0.3,0.2-0.4l1-1c0.1-0.1,0.2-0.2,0.4-0.2c0.1,0,0.3,0.1,0.4,0.2s0.2,0.2,0.2,0.4c0,0.1-0.1,0.3-0.2,0.4l-1,1
					C177.5,39,177.4,39.1,177.2,39.1z"/>
			</g>
		</g>
	</g>
	<g>
		<g>
			<g>
				<path class="st3" d="M529,399.3l0.8-0.8l9.6,9.6c0,0,0.1,0.1,0.1,0.1s0.1,0,0.1-0.1l5.4-5.4c0.1-0.1,0.1-0.2,0-0.3l-2.2-2.2
					c0,0-0.1-0.1-0.1-0.1c-0.1,0-0.1,0-0.1,0.1l-3.1,3.1l-0.8-0.8l3.1-3.1c0,0,0.1-0.1,0.1-0.1c0-0.1,0-0.1-0.1-0.1l-2.2-2.2
					c0,0-0.1-0.1-0.1-0.1c-0.1,0-0.1,0-0.1,0.1l-2,2l-0.8-0.8l2-2c0.1-0.1,0.1-0.2,0-0.3l-2.2-2.2c0,0-0.1-0.1-0.1-0.1
					c-0.1,0-0.1,0-0.1,0.1l-3.1,3.1l-0.8-0.8l4-4l10.6,10.6l-7.3,7.3L529,399.3z M512,401.3l26.6-26.6c0.7-0.7,1.7-1.1,2.8-1.1
					c1.1,0,2.1,0.4,2.8,1.1l0.5,0.5c0.8,0.8,1.2,1.8,1.2,2.8s-0.4,2.1-1.2,2.8l-2.7,2.7l-0.1,0.1l-23.8,23.8l-7.8,1.6L512,401.3z
					 M512.9,402.9C512.9,402.9,512.9,402.9,512.9,402.9c-0.1,0-0.2,0.1-0.2,0.2l-0.9,4.2c0,0.1,0,0.1,0.1,0.2c0,0,0.1,0.1,0.1,0.1
					c0,0,0,0,0,0l4.2-0.9c0.1,0,0.1-0.1,0.2-0.1c0-0.1,0-0.1-0.1-0.2l-3.3-3.3C513,402.9,513,402.9,512.9,402.9z M539.4,380.9
					c-0.1,0-0.1,0-0.1,0.1l-23.1,23.1c-0.1,0.1-0.1,0.2,0,0.3l1.6,1.6c0,0,0.1,0.1,0.1,0.1s0.1,0,0.1-0.1l23.1-23.1
					c0,0,0.1-0.1,0.1-0.1c0-0.1,0-0.1-0.1-0.1l-1.6-1.6C539.5,380.9,539.4,380.9,539.4,380.9z M536.7,378.2c-0.1,0-0.1,0-0.1,0.1
					l-23.1,23.1c-0.1,0.1-0.1,0.2,0,0.3l1.6,1.6c0,0,0.1,0.1,0.1,0.1l0,0c0.1,0,0.1,0,0.1-0.1l23.1-23.1c0,0,0.1-0.1,0.1-0.1
					c0-0.1,0-0.1-0.1-0.1l-1.6-1.6C536.8,378.2,536.7,378.2,536.7,378.2z M541.4,374.6c-0.8,0-1.5,0.3-2,0.8l-1.7,1.7
					c-0.1,0.1-0.1,0.2,0,0.3l4.3,4.3c0,0,0.1,0.1,0.1,0.1s0.1,0,0.1-0.1l1.7-1.7c0.5-0.5,0.8-1.3,0.8-2c0-0.8-0.3-1.5-0.8-2
					l-0.5-0.5C542.9,374.9,542.2,374.6,541.4,374.6z M509.6,379.9l7.3-7.3l10.5,10.5l-3,2.9l-0.8-0.8l2-2c0.1-0.1,0.1-0.2,0-0.3
					l-2.2-2.2c0,0-0.1-0.1-0.1-0.1l0,0c-0.1,0-0.1,0-0.1,0.1l-3.1,3.1l-0.8-0.8l3.1-3.1c0.1-0.1,0.1-0.2,0-0.3l-2.2-2.2
					c0,0-0.1-0.1-0.1-0.1c0,0,0,0,0,0c-0.1,0-0.1,0-0.1,0.1l-2,2l-0.8-0.8l2-2c0.1-0.1,0.1-0.2,0-0.3l-2.2-2.2c0,0-0.1-0.1-0.1-0.1
					s-0.1,0-0.1,0.1l-5.4,5.4c0,0-0.1,0.1-0.1,0.1s0,0.1,0.1,0.1l9.6,9.6l-0.8,0.8L509.6,379.9z"/>
			</g>
		</g>
	</g>
	<g>
		<g>
			<path class="st3" d="M628.1,231.4l-6.2-6.2c-0.5-0.5-1.4-0.5-1.9,0l-0.4,0.4l-1.1-1c2.4-2.8,2.7-6.7,0.9-9.8v-6.4
				c0.1-0.2,0-0.4-0.1-0.5l-5.7-5.7c-0.1-0.2-0.3-0.4-0.5-0.4h-1.5v-3.4c0-0.3-0.3-0.6-0.6-0.6H590c-0.3,0-0.6,0.3-0.6,0.6v29.4
				c0,0.3,0.3,0.6,0.6,0.6h3.4v5c0,0.3,0.3,0.6,0.6,0.6h24.7c0.3,0,0.5-0.3,0.6-0.5v-3.5l5.2,5.2c0.3,0.3,0.6,0.4,1,0.4
				c0.4,0,0.7-0.1,0.9-0.5l1.7-1.7C628.7,232.8,628.7,231.9,628.1,231.4z M617.3,224.1c-1.4,1.4-3.2,2.1-5.1,2.1
				c-1.9,0-3.7-0.8-5.1-2.1c-2.8-2.8-2.8-7.4,0-10.2c1.4-1.4,3.3-2.1,5.1-2.1c1.9,0,3.7,0.7,5.1,2.1c0.3,0.3,0.6,0.7,0.9,1.1
				c0,0.1,0.1,0.2,0.2,0.3C620,218.1,619.6,221.7,617.3,224.1z M613.4,203.7l3.9,3.9h-3.9V203.7z M590.6,227.2v-28.3h19.7v2.8H594
				c-0.3,0-0.6,0.3-0.6,0.6v24.8H590.6z M594.6,232.8v-4.9c0-0.1,0-0.1,0-0.2c0-0.1,0-0.2,0-0.2v-24.6h17.8v5.2
				c0,0.3,0.3,0.6,0.6,0.6h5.2v4.6c0,0-0.1-0.1-0.1-0.1c-3.2-3.2-8.5-3.2-11.8,0c-1.6,1.6-2.4,3.7-2.4,5.9c0,2.2,0.8,4.3,2.4,5.9
				c1.6,1.6,3.7,2.4,5.9,2.4c2.1,0,4-0.7,5.5-2.1l1.1,1.1l-0.4,0.4c-0.3,0.3-0.4,0.6-0.4,1c0,0.4,0.1,0.7,0.3,0.9v4.1H594.6z
				 M627.3,232.5l-1.7,1.7c-0.1,0.1-0.3,0.1-0.4,0l-6-6c-0.1-0.1-0.1-0.2-0.2-0.2c-0.1-0.1-0.1-0.3,0-0.4l0.8-0.8c0,0,0.1,0,0.1,0
				c0,0,0.1-0.1,0.1-0.1l0.7-0.7c0.1,0,0.1-0.1,0.2-0.1c0.1,0,0.1,0,0.2,0.1l6.2,6.2C627.4,232.2,627.4,232.4,627.3,232.5z"/>
		</g>
		<g>
			<path class="st3" d="M608.1,215c-2.2,2.2-2.2,5.8,0,8c1.1,1.1,2.5,1.7,4,1.7c1.5,0,2.9-0.6,4-1.7c1.1-1,1.7-2.5,1.7-4
				c0-1.5-0.6-3-1.7-4C614,212.8,610.4,212.8,608.1,215z M615.4,222.2c-0.9,0.9-2,1.3-3.2,1.3c-1.2,0-2.4-0.5-3.2-1.3
				c-1.8-1.8-1.8-4.7,0-6.4c1.8-1.8,4.7-1.8,6.5,0c0.8,0.8,1.3,2,1.3,3.2C616.7,220.3,616.2,221.4,615.4,222.2z"/>
		</g>
		<g>
			<path class="st3" d="M597.4,213.2h5.2c0.3,0,0.5-0.3,0.5-0.6c0-0.3-0.3-0.6-0.6-0.6h-5.2c-0.3,0-0.6,0.3-0.6,0.6
				C596.8,213,597.1,213.2,597.4,213.2z"/>
		</g>
		<g>
			<path class="st3" d="M597.4,225.9h5.2c0.3,0,0.5-0.3,0.5-0.6c0-0.3-0.3-0.6-0.6-0.6h-5.2c-0.3,0-0.6,0.3-0.6,0.6
				C596.8,225.7,597.1,225.9,597.4,225.9z"/>
		</g>
		<g>
			<path class="st3" d="M612.9,229h-15.5c-0.3,0-0.6,0.3-0.6,0.5c0,0.3,0.3,0.6,0.6,0.6h15.5c0.3,0,0.6-0.3,0.6-0.6
				C613.4,229.3,613.2,229,612.9,229z"/>
		</g>
		<g>
			<path class="st3" d="M597.4,217.5h5.2c0.3,0,0.5-0.3,0.5-0.6s-0.3-0.6-0.6-0.6h-5.2c-0.3,0-0.6,0.3-0.6,0.6
				S597.1,217.5,597.4,217.5z"/>
		</g>
		<g>
			<path class="st3" d="M597.4,209h12.5c0.3,0,0.6-0.3,0.6-0.6c0-0.3-0.3-0.6-0.6-0.6h-12.5c-0.3,0-0.6,0.3-0.6,0.6
				C596.8,208.7,597.1,209,597.4,209z"/>
		</g>
		<g>
			<path class="st3" d="M597.4,221.7h5.2c0.3,0,0.5-0.3,0.5-0.6c0-0.3-0.3-0.6-0.6-0.6h-5.2c-0.3,0-0.6,0.3-0.6,0.6
				C596.8,221.4,597.1,221.7,597.4,221.7z"/>
		</g>
	</g>
	<g>
		<g>
			<path class="st3" d="M112.5,200.7H83.2c-2.2,0-4,1.8-4,4v24c0,2.2,1.8,4,4,4h0.9h3h25.3c2.2,0,4-1.8,4-4v-24
				C116.4,202.4,114.6,200.7,112.5,200.7z M115.3,228.6c0,1.6-1.3,2.9-2.9,2.9H87.2h-3h-0.9c-1.6,0-2.9-1.3-2.9-2.9v-22.4h29.1h4.4
				h1.5V228.6z M115.3,205.1h-1.5h-4.4H80.4v-0.5c0-1.6,1.3-2.9,2.9-2.9h29.2c1.6,0,2.9,1.3,2.9,2.9V205.1z"/>
		</g>
		<g>
			<path class="st3" d="M97.8,207.8c-3.9,0-7.5,1.5-10.3,4.2c-2.8,2.7-4.4,6.3-4.5,10.2c0,0.2,0.1,0.5,0.3,0.7
				c0.2,0.2,0.4,0.3,0.7,0.3h3c0.5,0,0.9-0.4,0.9-0.9c0.1-2.5,1.1-4.8,2.8-6.6c0.2-0.2,0.2-0.6,0-0.8s-0.6-0.2-0.8,0c0,0,0,0,0,0
				c-0.4,0.5-0.9,1-1.2,1.5l-2.2-1.6c0.5-0.7,1.1-1.4,1.7-2.1c1.3-1.3,2.9-2.3,4.6-3l0.8,2.6c-0.6,0.3-1.3,0.6-1.8,1
				c-0.3,0.2-0.3,0.5-0.2,0.8c0,0,0,0,0,0c0.2,0.3,0.5,0.3,0.8,0.2c0,0,0,0,0,0c1.6-1,3.5-1.6,5.4-1.6c2.6,0,5,1,6.9,2.8
				c1.9,1.8,2.9,4.2,3,6.8c0,0.5,0.4,0.9,0.9,0.9h3c0.2,0,0.5-0.1,0.7-0.3c0.2-0.2,0.3-0.4,0.3-0.7c-0.1-3.9-1.7-7.5-4.5-10.2
				C105.3,209.3,101.7,207.8,97.8,207.8z M88.1,217.3c-0.8,1.4-1.2,3.1-1.3,4.7h-2.7c0.1-2.2,0.7-4.4,1.8-6.3L88.1,217.3z
				 M100.9,212c-1-0.3-2.1-0.4-3.1-0.4c-1.1,0-2.1,0.2-3.1,0.5l-0.8-2.6c1.3-0.4,2.6-0.6,3.9-0.6c1.4,0,2.7,0.2,3.9,0.6L100.9,212z
				 M111.5,222h-2.7v0c-0.1-1.7-0.5-3.3-1.3-4.7l2.2-1.6C110.8,217.6,111.4,219.8,111.5,222z M106.9,216.4c-0.4-0.6-0.9-1.2-1.5-1.7
				c-1-1-2.2-1.8-3.5-2.3l0.8-2.6c1.7,0.7,3.2,1.7,4.6,3c0.6,0.6,1.2,1.3,1.7,2.1L106.9,216.4z"/>
		</g>
		<g>
			<path class="st3" d="M83.4,203h-0.2c-0.3,0-0.5,0.2-0.5,0.5c0,0.3,0.2,0.5,0.5,0.5h0.2c0.3,0,0.5-0.2,0.5-0.5
				C83.9,203.2,83.7,203,83.4,203z"/>
		</g>
		<g>
			<path class="st3" d="M86.1,203h-0.2c-0.3,0-0.5,0.2-0.5,0.5c0,0.3,0.2,0.5,0.5,0.5h0.2c0.3,0,0.5-0.2,0.5-0.5
				C86.6,203.2,86.4,203,86.1,203z"/>
		</g>
		<g>
			<path class="st3" d="M101.1,218.7c-0.3-0.2-0.8-0.2-1.1,0l-3.3,2.1c-1,0.4-1.7,1.5-1.7,2.6c0,1.6,1.3,2.9,2.9,2.9
				c1.6,0,2.8-1.2,2.9-2.8l0.8-3.8C101.6,219.4,101.4,219,101.1,218.7z M97.8,225.3c-1,0-1.8-0.8-1.8-1.8c0-1,0.8-1.8,1.8-1.8
				c1,0,1.8,0.8,1.8,1.8C99.6,224.5,98.8,225.3,97.8,225.3z M100,221.6c-0.3-0.4-0.8-0.7-1.2-0.8l1.6-1.1L100,221.6z"/>
		</g>
		<g>
			<path class="st3" d="M88.7,203h-0.2c-0.3,0-0.5,0.2-0.5,0.5c0,0.3,0.2,0.5,0.5,0.5h0.2c0.3,0,0.5-0.2,0.5-0.5
				C89.3,203.2,89,203,88.7,203z"/>
		</g>
	</g>
	<g>
		<g>
			<g>
				<path class="st3" d="M184.4,374.8h-7.6c-0.8,0.1-0.8,1.3,0,1.3h7.6C185.2,376.1,185.2,374.8,184.4,374.8z"/>
			</g>
		</g>
		<g>
			<g>
				<path class="st3" d="M163,374.8c-0.3,0-0.6,0.3-0.6,0.6c0,0.3,0.3,0.6,0.6,0.6c0.3,0,0.6-0.3,0.6-0.6
					C163.6,375.1,163.3,374.8,163,374.8z"/>
			</g>
		</g>
		<g>
			<g>
				<path class="st3" d="M165.5,374.8c-0.3,0-0.6,0.3-0.6,0.6c0,0.3,0.3,0.6,0.6,0.6s0.6-0.3,0.6-0.6
					C166.1,375.1,165.8,374.8,165.5,374.8z"/>
			</g>
		</g>
		<g>
			<g>
				<path class="st3" d="M168,374.8c-0.3,0-0.6,0.3-0.6,0.6c0,0.3,0.3,0.6,0.6,0.6s0.6-0.3,0.6-0.6
					C168.6,375.1,168.4,374.8,168,374.8z"/>
			</g>
		</g>
		<g>
			<g>
				<path class="st3" d="M172.4,400h2.5c0.9,0.1,0.9-1.2,0-1.3h-2.6C171.6,398.8,171.6,400,172.4,400z"/>
			</g>
		</g>
		<g>
			<g>
				<path class="st3" d="M182.9,386.9l-3.8-3.2c-0.1-0.1-0.3-0.2-0.4-0.1c-0.6,0.1-0.8,0.8-0.4,1.1v0l3.2,2.7l-3.2,2.7
					c-0.7,0.5,0.2,1.5,0.8,1l3.8-3.1C183.2,387.7,183.2,387.3,182.9,386.9C183,387,182.9,387,182.9,386.9z"/>
			</g>
		</g>
		<g>
			<g>
				<path class="st3" d="M190.7,376.1h-3.1v-1.9c0-1-0.8-1.9-1.9-1.9h-23.9c-1,0-1.9,0.8-1.9,1.9v1.9l-3.1,0c-1,0-1.9,0.8-1.9,1.9
					v22.7c0,1,0.9,1.9,1.9,1.9h34c1,0,1.9-0.8,1.9-1.9V378C192.6,376.9,191.7,376.1,190.7,376.1z M161.1,374.2
					c0-0.4,0.3-0.6,0.6-0.6l0,0h23.9c0.4,0,0.6,0.3,0.6,0.6v3.2h-25.2V374.2z M156,378c0-0.4,0.3-0.6,0.6-0.6h3.1v17
					c0,0.8,1.3,0.8,1.3,0v-15.7h25.2v15.7c0,0.9,1.3,0.9,1.3,0v-17h3.1c0.4,0,0.6,0.3,0.6,0.6v18.3H156V378z M191.3,400.6
					c0,0.3-0.3,0.6-0.6,0.6c0,0,0,0,0,0h-34c-0.3,0-0.6-0.3-0.6-0.6c0,0,0,0,0,0v-3.1h35.3V400.6z"/>
			</g>
		</g>
		<g>
			<g>
				<path class="st3" d="M180.6,406.3h-1c-0.9-0.8-1.5-1.5-1.8-2.2c-0.1-0.3-0.5-0.5-0.8-0.4c-0.3,0.1-0.5,0.5-0.4,0.8
					c0,0,0,0.1,0,0.1c0.2,0.5,0.6,1.1,1.1,1.7h-8.2c0.5-0.6,0.9-1.1,1.1-1.7c0.2-0.3,0-0.7-0.3-0.8c-0.1,0-0.2-0.1-0.3-0.1v0
					c-0.3,0-0.5,0.1-0.6,0.4c-0.3,0.6-0.8,1.4-1.8,2.2h-1c-1,0-1.9,0.9-1.9,1.9v1.3c0,0.3,0.3,0.6,0.6,0.6h16.4
					c0.3,0,0.6-0.3,0.6-0.6c0,0,0,0,0,0v-1.3C182.5,407.2,181.6,406.3,180.6,406.3z M181.2,408.2v0.6h-15.1v-0.6
					c0-0.4,0.3-0.6,0.6-0.6h13.9C180.9,407.6,181.2,407.8,181.2,408.2C181.2,408.2,181.2,408.2,181.2,408.2z"/>
			</g>
		</g>
		<g>
			<g>
				<path class="st3" d="M175.8,381.1c-0.1,0-0.1,0-0.2,0c-0.3,0-0.5,0.2-0.6,0.4l-3.8,11.3c-0.3,0.8,0.9,1.2,1.2,0.4l3.8-11.3
					C176.3,381.6,176.1,381.2,175.8,381.1z"/>
			</g>
		</g>
		<g>
			<g>
				<path class="st3" d="M169,390.1l-3.2-2.7l3.2-2.7c0.3-0.2,0.3-0.6,0.1-0.9c-0.1-0.2-0.3-0.2-0.5-0.2v0c-0.1,0-0.3,0.1-0.4,0.1
					l-3.8,3.2c-0.3,0.2-0.3,0.6-0.1,0.9c0,0,0,0.1,0.1,0.1l3.8,3.1C168.9,391.6,169.8,390.6,169,390.1z"/>
			</g>
		</g>
	</g>
</g>
</svg>
