<?xml version="1.0" encoding="utf-8"?>
<!-- Generator: Adobe Illustrator 24.3.0, SVG Export Plug-In . SVG Version: 6.00 Build 0)  -->
<svg version="1.1" id="Layer_1" xmlns="http://www.w3.org/2000/svg" xmlns:xlink="http://www.w3.org/1999/xlink" x="0px" y="0px"
	 width="16px" height="16px" viewBox="0 0 16 16" style="enable-background:new 0 0 16 16;" xml:space="preserve">
<style type="text/css">
	.st0{fill:#F97015;}
</style>
<g>
	<g>
		<path d="M9,1.7C8.3,1.7,7.7,1.8,7,2C6.5,2.2,5.9,2.3,5.6,2.8C5.4,3,5.3,3.3,5.3,3.6c0,0.2,0.1,0.4,0.2,0.5s0.2,0.2,0.2,0.3
			l0.1,0.1C5.9,4.6,6,4.7,6,4.7C6.1,4.8,6.2,4.9,6.3,5c0,0,0.1,0.1,0.2,0.1c0,0,0,0,0.1,0.1c0.5,0.5,1.2,1,2.1,1.7l0,0
			c0.2,0.2,0.5,0.3,0.8,0.5c0.2,0.1,0.4,0.3,0.7,0.4c-0.3-0.2-0.6-0.5-1-0.7c-0.4-0.3-0.8-0.6-1.1-1C7.7,5.7,7.2,5.2,7,4.6
			c0-0.2-0.1-0.4-0.1-0.7V3.8L7,3.7c0.5-0.2,1.1-0.3,1.7-0.3c2.5,0,4.2,2,3.8,4.5c-0.1,0.5-0.2,0.9-0.4,1.3c0.5,0.4,0.9,0.7,1.3,1.1
			c0.4-0.8,0.7-1.6,0.9-2.4C14.8,4.5,12.5,1.7,9,1.7z"/>
		<path d="M10.6,12c-0.1-0.1-0.1-0.2-0.2-0.3l0,0l0,0l0,0l-0.1-0.1c-0.6-0.6-2-1.9-4.5-3.4C6.2,8.5,9,10.4,9.4,12
			c-0.7,0.3-1.4,0.5-2.1,0.5c-2.5,0-4.2-2-3.8-4.5c0.1-0.5,0.2-0.9,0.4-1.3C3.4,6.3,3,5.9,2.6,5.5C2.1,6.3,1.8,7.1,1.7,8
			c-0.5,3.4,1.7,6.2,5.1,6.3c1.6-0.1,3.3-0.4,3.8-1.3C10.8,12.8,10.8,12.5,10.6,12L10.6,12z"/>
	</g>
	<path class="st0" d="M13,11.1c-0.4-0.4-0.8-0.8-1.2-1.1c-1.2-1-2.6-1.8-3.5-2.5l0,0c-1.4-1-2.5-1.9-3.1-2.7c-0.4-0.5-0.7-1-0.6-1.5
		c0-0.2,0.1-0.5,0.3-0.7C5.9,0.9,8.6,1,8.6,1S3.7-1,2.1,1.6C1.4,2.7,2,3.8,3,4.9C3.4,5.3,3.8,5.7,4.2,6c1.2,1,2.6,1.8,3.6,2.5l0,0
		c1.4,1,2.4,1.9,3.1,2.7c0.5,0.6,0.7,1.1,0.6,1.6c0,0.2-0.1,0.5-0.3,0.7C10.1,15.1,6.3,15,6.3,15s6,2,7.6-0.6
		C14.6,13.3,14,12.2,13,11.1z"/>
</g>
</svg>
