<?xml version="1.0" encoding="utf-8"?>
<!-- Generator: Adobe Illustrator 24.3.0, SVG Export Plug-In . SVG Version: 6.00 Build 0)  -->
<svg version="1.1" id="Layer_1" xmlns="http://www.w3.org/2000/svg" xmlns:xlink="http://www.w3.org/1999/xlink" x="0px" y="0px"
	 width="461.3px" height="113.7px" viewBox="0 0 461.3 113.7" style="enable-background:new 0 0 461.3 113.7;" xml:space="preserve"
	>
<style type="text/css">
	.st0{fill:#F9F9F9;}
	.st1{fill:#F97015;}
</style>
<g>
	<g>
		<path class="st0" d="M234.4,10.7c-4.9,0-9.8,0.8-14.4,2.2c-3.7,1.1-7.9,2.3-10.5,5.5c-1.3,1.6-2.2,3.8-1.9,5.9
			c0.2,1.4,0.9,2.7,1.6,3.9c0.5,0.9,1.2,1.7,1.8,2.5c0.2,0.3,0.5,0.6,0.7,0.9c0.3,0.4,0.7,0.8,1.1,1.3c0.5,0.5,1.1,1.1,1.7,1.8
			c0.4,0.4,0.9,0.8,1.3,1.3c0.2,0.2,0.3,0.3,0.5,0.5c3.7,3.4,8.8,7.5,15.5,12.4l0.3,0.2c1.8,1.2,3.7,2.5,5.9,3.9
			c1.6,1,3.2,2.1,4.9,3.3c-2.4-1.7-4.7-3.4-7-5.3c-2.8-2.3-5.5-4.7-8-7.3c-3.3-3.4-6.4-7.2-7.9-11.7c-0.5-1.5-0.8-3.1-0.9-4.8
			c0-0.2,0-0.4,0.1-0.6c0.1-0.3,0.5-0.4,0.8-0.5c4-1.3,8.2-2.2,12.4-2.2c18.3,0,30.8,14.8,27.9,33.1c-0.5,3.3-1.5,6.5-2.9,9.5
			c3.4,2.7,6.6,5.5,9.5,8.4c3.2-5.5,5.4-11.6,6.4-17.9C277.4,31.4,260,10.7,234.4,10.7z"/>
		<path class="st0" d="M245.9,86.2c-0.4-0.7-0.8-1.4-1.4-2.2c0,0,0,0,0,0c0,0,0,0,0,0c0,0,0,0,0,0c-0.3-0.3-0.6-0.6-0.9-1
			c-4.2-4.4-14.1-13.6-32.5-24.7c3.2,2.1,23.8,15.9,26.5,28.1c-4.9,2.3-10.2,3.6-15.6,3.6c-18.3,0-30.8-14.8-28-33.2
			c0.5-3.4,1.6-6.7,3-9.8c-3.4-2.7-6.6-5.5-9.5-8.4c-3.3,5.6-5.6,11.7-6.6,18.2c-3.9,24.9,12.6,45.1,37,46.2
			c11.8-0.4,24.4-3.3,28.2-9.2C247.5,91.8,247.7,89.5,245.9,86.2L245.9,86.2z"/>
	</g>
	<g>
		<polygon class="st1" points="65.9,27 47.8,66.1 46.2,27 35.1,27 16.2,66.1 15.4,27 0,27 3.9,86.8 18.5,86.8 36,49.7 37.3,86.8 
			51.9,86.8 82.1,27 		"/>
		<polygon class="st1" points="95.4,39.6 124,39.6 126.9,27 84,27 70.8,86.8 113.7,86.8 116.4,74.1 87.8,74.1 90.3,62.8 118.3,62.8 
			121.1,50.1 93.1,50.1 		"/>
		<path class="st1" d="M179.9,41.8c0-7.1-5.2-14.8-16.6-14.8h-28.9l-13.2,59.8h32.8c14.6,0,21.1-9.1,21.1-18.1
			c0-4.9-2.5-9.3-6.2-11.5C175.1,55.2,179.9,48.8,179.9,41.8z M153,74.3H138l2.6-11.7h14.8c3.3,0,5.5,2,5.5,5
			C160.9,71.6,157.6,74.3,153,74.3z M157.9,50.2h-14.5l2.4-10.8h14c2.9,0,5,1.9,5,4.5C164.9,45.3,164.4,50.2,157.9,50.2z"/>
	</g>
	<g>
		<path class="st0" d="M329.6,44.2c0-11.2-9.7-17.2-18.8-17.2h-25.5l-12.1,55.2c0.2,0.3,0.5,0.7,0.7,1c0.6,0.9,1.1,1.8,1.6,2.7
			c0.2,0.3,0.3,0.6,0.4,0.9h10.4l4.5-20.6h8.2l6.9,20.6h15.6L313.4,65C323,62.8,329.6,54.4,329.6,44.2z M296.7,39.6h11.7
			c3.5,0,6.4,2.6,6.4,5.8c0,4.9-3.7,8.1-9.6,8.1h-11.7L296.7,39.6z"/>
		<path class="st0" d="M385.1,41.8c0-7.1-5.2-14.8-16.6-14.8h-28.9l-13.2,59.8h32.8c14.5,0,21.1-9.1,21.1-18.1
			c0-4.9-2.5-9.3-6.2-11.5C380.4,55.2,385.1,48.8,385.1,41.8z M345.9,62.6h14.8c3.3,0,5.5,2,5.5,5c0,3.9-3.2,6.7-7.9,6.7h-14.9
			L345.9,62.6z M363.2,50.2h-14.5l2.4-10.8h14c2.9,0,5,1.9,5,4.5C370.2,45.3,369.7,50.2,363.2,50.2z"/>
		<polygon class="st0" points="381.1,86.8 395.3,86.8 408.5,27 394.3,27 		"/>
		<polygon class="st0" points="413.2,27 410.4,39.6 427.3,39.6 417,86.8 431.2,86.8 441.6,39.6 458.6,39.6 461.3,27 		"/>
	</g>
	<path class="st1" d="M264,79.5c-2.7-2.8-5.8-5.6-9.1-8.2c-8.7-6.9-18.7-13.1-25.6-17.8l0,0c-10.5-7.6-18-13.9-22.4-19.5
		c-3.4-4.3-5-8.1-4.7-11.8c0.1-1.8,0.8-3.5,1.9-5.3c7.9-12.5,27.9-11.8,27.9-11.8S196-9.2,184.2,9.9c-5,8-1,16.4,6.4,24.3
		c2.7,2.8,5.8,5.6,9.1,8.2c8.7,7,18.8,13.2,25.7,17.8l0,0c10.4,7.6,17.9,13.9,22.4,19.4c3.4,4.3,5,8.1,4.7,11.8
		c-0.1,1.8-0.8,3.6-1.9,5.3c-7.9,12.5-36.2,11.8-36.2,11.8s44.2,14.4,56-4.7C275.5,95.8,271.5,87.4,264,79.5z"/>
</g>
</svg>
